<?xml version="1.0" encoding="utf-8"?>
<!-- Generator: Adobe Illustrator 16.0.0, SVG Export Plug-In . SVG Version: 6.00 Build 0)  -->
<!DOCTYPE svg PUBLIC "-//W3C//DTD SVG 1.1//EN" "http://www.w3.org/Graphics/SVG/1.1/DTD/svg11.dtd">
<svg version="1.1" id="Layer_1" xmlns="http://www.w3.org/2000/svg" xmlns:xlink="http://www.w3.org/1999/xlink" x="0px" y="0px"
	 width="512px" height="512px" viewBox="0 0 512 512" enable-background="new 0 0 512 512" xml:space="preserve">
<path fill="#004866" d="M237.717,284.26c-10.085,10.107-10.085,26.471,0,36.557c10.105,10.086,26.471,10.086,36.557,0
	c10.094-10.086,10.094-26.449,0-36.557C264.188,274.176,247.822,274.176,237.717,284.26 M205.979,252.511
	c-4.564,4.559-4.564,11.961,0,16.526s11.95,4.564,16.515,0c18.479-18.474,48.535-18.474,67.013,0
	c2.277,2.275,5.272,3.426,8.264,3.426c2.992,0,5.974-1.15,8.251-3.426c4.575-4.564,4.575-11.967,0-16.526
	C278.435,224.935,233.566,224.935,205.979,252.511 M184.839,243.071c2.993,0,5.976-1.144,8.264-3.426
	c34.68-34.687,91.124-34.667,125.795-0.01c4.564,4.585,11.949,4.585,16.514,0c4.565-4.56,4.565-11.945,0-16.52
	c-43.758-43.755-115.014-43.774-158.823,0c-4.564,4.564-4.564,11.96-0.011,16.52C178.854,241.928,181.847,243.071,184.839,243.071
	 M464.736,132.312H47.264c-8.061,0-14.6,6.539-14.6,14.6v218.167c0,8.063,6.539,14.609,14.6,14.609h417.473
	c8.06,0,14.6-6.547,14.6-14.609V146.912C479.336,138.851,472.796,132.312,464.736,132.312 M450.137,350.479H61.864V161.513h388.272
	V350.479z"/>
</svg>
