<?xml version="1.0" encoding="utf-8"?>
<!-- Generator: Adobe Illustrator 16.0.0, SVG Export Plug-In . SVG Version: 6.00 Build 0)  -->
<!DOCTYPE svg PUBLIC "-//W3C//DTD SVG 1.1//EN" "http://www.w3.org/Graphics/SVG/1.1/DTD/svg11.dtd">
<svg version="1.1" id="Layer_1" xmlns="http://www.w3.org/2000/svg" xmlns:xlink="http://www.w3.org/1999/xlink" x="0px" y="0px"
	 width="512px" height="177.846px" viewBox="0 0 512 177.846" enable-background="new 0 0 512 177.846" xml:space="preserve">
<g>
	<rect x="97.262" y="38.603" fill="#9ACA3C" width="412.57" height="100.641"/>
	<path fill="#FFFFFF" d="M141.583,67.763c0.703,0,1.571,0.03,2.604,0.086c1.03,0.058,2.087,0.157,3.171,0.3
		c1.083,0.144,2.141,0.332,3.173,0.56c1.029,0.231,1.951,0.518,2.765,0.861c0.436,0.174,0.664,0.403,0.691,0.69
		c0.026,0.287,0.041,0.544,0.041,0.774l-0.326,1.462c-0.052,0.288-0.217,0.46-0.487,0.516c-0.271,0.06-0.596,0.06-0.977,0
		c-0.705-0.056-1.503-0.141-2.399-0.257c-0.894-0.116-1.828-0.216-2.805-0.301c-0.978-0.086-1.939-0.158-2.889-0.216
		c-0.949-0.056-1.829-0.086-2.644-0.086c-2.114,0-3.862,0.275-5.246,0.82c-1.384,0.547-2.469,1.483-3.254,2.806
		c-0.785,1.322-1.33,3.077-1.625,5.263c-0.301,2.188-0.449,4.919-0.449,8.2c0,3.393,0.164,6.229,0.488,8.5
		c0.326,2.272,0.882,4.085,1.667,5.436c0.785,1.354,1.858,2.317,3.214,2.894c1.354,0.575,3.093,0.861,5.206,0.861
		c0.541,0,1.273-0.027,2.197-0.086c0.92-0.056,1.911-0.127,2.969-0.214c1.059-0.087,2.117-0.173,3.17-0.26
		c1.058-0.084,2.021-0.187,2.889-0.3c0.653,0,1.004,0.258,1.058,0.773l0.242,1.099c0.054,0.281,0.028,0.549-0.081,0.802
		c-0.109,0.252-0.377,0.494-0.813,0.718c-1.3,0.563-3.035,0.984-5.205,1.265c-2.17,0.281-4.286,0.423-6.345,0.423
		c-3.364,0-6.062-0.547-8.094-1.635c-2.034-1.091-3.59-2.612-4.678-4.564c-1.085-1.951-1.804-4.261-2.154-6.93
		c-0.354-2.67-0.531-5.58-0.531-8.739c0-2.81,0.176-5.522,0.529-8.135c0.353-2.61,1.071-4.908,2.156-6.887
		c1.083-1.981,2.644-3.558,4.678-4.735C135.523,68.352,138.22,67.763,141.583,67.763"/>
	<path fill="#FFFFFF" d="M175.261,111.238c-3.741,0-6.669-0.66-8.786-1.979c-2.113-1.32-3.701-3.057-4.758-5.21
		c-1.056-2.148-1.709-4.546-1.952-7.187c-0.245-2.639-0.367-5.309-0.367-8.005c0-2.181,0.15-4.507,0.447-6.974
		c0.298-2.467,1.004-4.75,2.116-6.846c1.111-2.094,2.711-3.831,4.8-5.208c2.087-1.379,4.92-2.066,8.5-2.066
		c3.635,0,6.534,0.589,8.704,1.764c2.17,1.177,3.824,2.754,4.964,4.736c1.136,1.981,1.883,4.234,2.236,6.758
		c0.353,2.526,0.527,5.138,0.527,7.836c0,2.638-0.135,5.294-0.406,7.961c-0.271,2.671-0.948,5.068-2.034,7.188
		c-1.083,2.124-2.724,3.862-4.919,5.21C182.133,110.564,179.112,111.238,175.261,111.238 M175.259,71.982
		c-2.386,0-4.31,0.39-5.776,1.166c-1.464,0.778-2.602,1.928-3.416,3.452c-0.811,1.527-1.367,3.366-1.667,5.524
		c-0.299,2.158-0.447,4.617-0.447,7.377c0,2.763,0.148,5.223,0.447,7.381c0.3,2.155,0.857,3.997,1.669,5.522
		c0.813,1.526,1.951,2.675,3.416,3.452c1.464,0.777,3.388,1.166,5.776,1.166c2.44,0,4.433-0.375,5.978-1.124
		c1.545-0.747,2.753-1.87,3.62-3.365c0.869-1.494,1.463-3.321,1.789-5.479c0.325-2.16,0.489-4.674,0.489-7.554
		c0-2.817-0.149-5.308-0.447-7.463c-0.299-2.16-0.879-3.984-1.75-5.481c-0.868-1.496-2.072-2.63-3.62-3.408
		C179.773,72.371,177.753,71.982,175.259,71.982"/>
	<path fill="#FFFFFF" d="M225.489,78.181c-0.189-1.549-0.542-2.783-1.057-3.702c-0.516-0.918-1.263-1.564-2.238-1.937
		c-0.976-0.373-2.25-0.561-3.824-0.561c-1.085,0-2.346,0.215-3.78,0.645c-1.439,0.432-2.86,0.949-4.271,1.549
		c-1.413,0.604-2.698,1.207-3.865,1.811c-1.167,0.603-2.047,1.075-2.644,1.42v31.853c0,0.861-0.378,1.29-1.138,1.29h-2.115
		c-0.435,0-0.72-0.085-0.855-0.258c-0.136-0.171-0.203-0.517-0.203-1.032l-0.002-39.344c0-0.516,0.067-0.861,0.205-1.032
		c0.134-0.174,0.42-0.259,0.853-0.259h2.117c0.433,0,0.732,0.072,0.894,0.216c0.163,0.144,0.244,0.501,0.244,1.075l0.012,3.79
		c0.543-0.401,1.345-0.933,2.407-1.594c1.059-0.659,2.281-1.304,3.667-1.937c1.387-0.63,2.871-1.189,4.445-1.679
		c1.577-0.487,3.155-0.732,4.732-0.732c2.5,0,4.487,0.359,5.955,1.078c1.468,0.717,2.595,1.75,3.384,3.099
		c0.79,1.349,1.303,2.969,1.55,4.864c0.243,1.893,0.367,4.018,0.367,6.37v26.085c0,0.861-0.415,1.29-1.242,1.29h-2.238
		c-0.442,0-0.731-0.085-0.87-0.258c-0.137-0.171-0.206-0.517-0.206-1.032l-0.001-25.14C225.774,81.712,225.68,79.73,225.489,78.181"
		/>
	<path fill="#FFFFFF" d="M254.08,67.765c3.418,0,6.17,0.545,8.256,1.636c2.088,1.091,3.729,2.511,4.924,4.261
		c1.191,1.75,1.992,3.76,2.398,6.025c0.406,2.269,0.611,4.578,0.611,6.931c0,1.319-0.232,2.354-0.693,3.097
		c-0.463,0.749-1.34,1.122-2.645,1.122h-24.159c0.11,2.871,0.312,5.322,0.614,7.359c0.295,2.039,0.838,3.69,1.624,4.95
		c0.786,1.263,1.898,2.185,3.336,2.758c1.437,0.571,3.347,0.858,5.735,0.858c0.812,0,1.789-0.043,2.928-0.13
		c1.141-0.085,2.303-0.201,3.498-0.343c1.193-0.145,2.344-0.272,3.457-0.386c1.109-0.117,2.02-0.204,2.725-0.26
		c0.541-0.058,0.895,0.171,1.059,0.687l0.242,1.379c0.162,0.633-0.137,1.119-0.895,1.461c-0.65,0.231-1.518,0.476-2.604,0.733
		c-1.086,0.259-2.25,0.488-3.496,0.69c-1.246,0.2-2.508,0.357-3.783,0.474c-1.274,0.113-2.426,0.169-3.456,0.169
		c-3.635,0-6.496-0.601-8.583-1.807c-2.086-1.204-3.661-2.811-4.717-4.819c-1.057-2.01-1.723-4.349-1.995-7.02
		c-0.271-2.667-0.408-5.436-0.408-8.307c0-2.467,0.136-4.979,0.408-7.532c0.272-2.553,0.938-4.864,1.995-6.93
		c1.056-2.066,2.656-3.759,4.798-5.079C247.396,68.426,250.341,67.765,254.08,67.765 M254.08,71.983
		c-2.492,0-4.461,0.333-5.896,0.998c-1.438,0.663-2.55,1.628-3.335,2.901c-0.788,1.268-1.302,2.828-1.545,4.674
		c-0.245,1.848-0.42,3.955-0.531,6.322h22.778c-0.057-1.79-0.191-3.58-0.408-5.368c-0.215-1.791-0.719-3.394-1.502-4.808
		c-0.789-1.414-1.928-2.552-3.42-3.419C258.729,72.416,256.684,71.983,254.08,71.983"/>
	<path fill="#FFFFFF" d="M292.637,67.765c0.703,0,1.572,0.03,2.605,0.086c1.027,0.059,2.088,0.157,3.17,0.301
		c1.084,0.142,2.143,0.331,3.174,0.559c1.029,0.231,1.951,0.518,2.766,0.861c0.434,0.173,0.662,0.403,0.691,0.69
		c0.025,0.287,0.041,0.544,0.041,0.774l-0.328,1.461c-0.053,0.289-0.217,0.461-0.486,0.519c-0.27,0.057-0.598,0.057-0.977,0
		c-0.705-0.058-1.504-0.142-2.4-0.259c-0.895-0.116-1.826-0.216-2.805-0.301c-0.977-0.086-1.938-0.157-2.889-0.215
		c-0.949-0.057-1.83-0.087-2.645-0.087c-2.113,0-3.861,0.276-5.244,0.821c-1.385,0.545-2.469,1.481-3.254,2.805
		c-0.785,1.323-1.332,3.076-1.627,5.262c-0.299,2.189-0.447,4.919-0.447,8.201c0,3.394,0.162,6.229,0.486,8.5
		c0.328,2.272,0.883,4.085,1.67,5.438c0.785,1.353,1.855,2.315,3.213,2.892c1.354,0.577,3.092,0.863,5.205,0.863
		c0.541,0,1.275-0.029,2.197-0.086c0.92-0.06,1.91-0.131,2.969-0.218c1.059-0.083,2.117-0.172,3.17-0.258
		c1.059-0.085,2.021-0.186,2.889-0.3c0.654,0,1.004,0.256,1.061,0.775l0.242,1.099c0.053,0.279,0.029,0.549-0.082,0.799
		c-0.109,0.254-0.379,0.494-0.813,0.719c-1.301,0.562-3.037,0.984-5.207,1.264c-2.17,0.282-4.283,0.423-6.344,0.423
		c-3.363,0-6.061-0.545-8.096-1.636c-2.033-1.089-3.592-2.61-4.678-4.564c-1.084-1.949-1.803-4.259-2.154-6.93
		c-0.354-2.667-0.529-5.579-0.529-8.738c0-2.81,0.176-5.521,0.529-8.134c0.352-2.611,1.07-4.908,2.154-6.887
		c1.086-1.98,2.645-3.558,4.678-4.735C286.578,68.354,289.273,67.765,292.637,67.765"/>
	<path fill="#FFFFFF" d="M331.521,108.656c0.051,0.346,0.027,0.604-0.082,0.775s-0.273,0.317-0.488,0.433
		c-0.379,0.171-0.896,0.343-1.547,0.516c-0.648,0.171-1.355,0.329-2.113,0.474c-0.76,0.142-1.547,0.242-2.359,0.3
		c-0.814,0.057-1.574,0.088-2.279,0.088c-3.053-0.004-5.117-0.732-6.193-2.195c-1.078-1.466-1.615-3.573-1.615-6.33V72.501h-4.717
		c-0.65,0-0.977-0.317-0.977-0.949v-1.893c0-0.689,0.326-1.033,0.977-1.033h4.797v-9.557c0-0.631,0.305-1.033,0.912-1.204
		l2.404-0.775c0.496-0.172,0.813-0.172,0.951,0c0.137,0.171,0.209,0.488,0.209,0.946v10.59l8.947,0.001
		c0.434,0,0.691,0.073,0.771,0.214c0.082,0.145,0.125,0.388,0.125,0.733v1.979c0,0.345-0.043,0.589-0.125,0.733
		c-0.08,0.145-0.338,0.216-0.771,0.216H319.4v28.752c0,0.979,0.053,1.808,0.164,2.497c0.105,0.688,0.352,1.262,0.73,1.723
		c0.381,0.459,0.936,0.803,1.666,1.032c0.736,0.231,1.695,0.346,2.889,0.346c0.27,0,0.639-0.015,1.098-0.042
		c0.459-0.029,0.947-0.058,1.465-0.088c0.516-0.027,1.004-0.058,1.465-0.087s0.855-0.071,1.178-0.129
		c0.436-0.056,0.719-0.027,0.857,0.086c0.135,0.116,0.254,0.343,0.365,0.689L331.521,108.656z"/>
	<path fill="#FFFFFF" d="M362.594,105.645c-1.195,0.746-2.389,1.451-3.578,2.106c-1.195,0.664-2.471,1.251-3.826,1.767
		c-1.355,0.518-2.793,0.936-4.311,1.251c-1.518,0.313-3.172,0.471-4.961,0.471c-3.688,0-6.348-0.962-7.973-2.892
		c-1.627-1.929-2.441-4.796-2.441-8.596c0-4.896,1.152-8.494,3.459-10.797c2.303-2.303,6.004-3.456,11.102-3.456h12.607v-3.851
		c0-1.708-0.148-3.163-0.447-4.36c-0.295-1.198-0.84-2.183-1.627-2.953c-0.785-0.768-1.857-1.338-3.213-1.709
		s-3.063-0.557-5.123-0.557c-1.738,0-3.662,0.086-5.777,0.257c-2.111,0.174-4.119,0.374-6.02,0.604
		c-0.76,0.059-1.164-0.144-1.221-0.604l-0.324-1.549c0-0.573,0.299-1.003,0.895-1.291c0.869-0.345,1.873-0.632,3.012-0.861
		c1.139-0.229,2.303-0.417,3.498-0.56c1.191-0.144,2.344-0.244,3.455-0.302c1.111-0.054,2.102-0.084,2.971-0.084
		c3.035,0,5.492,0.3,7.363,0.903c1.867,0.604,3.332,1.522,4.391,2.754c1.057,1.236,1.775,2.787,2.156,4.65
		c0.377,1.866,0.57,4.033,0.57,6.5v21.175c0,0.805,0.053,1.422,0.16,1.854c0.109,0.429,0.287,0.761,0.531,0.99
		c0.242,0.229,0.58,0.386,1.016,0.471c0.436,0.087,1.004,0.158,1.709,0.216c0.594,0,0.895,0.258,0.895,0.775v1.722
		c0,0.287-0.082,0.516-0.244,0.689c-0.164,0.169-0.488,0.315-0.979,0.429c-2.656,0.287-4.553,0.087-5.691-0.603
		c-1.141-0.688-1.789-2.207-1.955-4.562H362.594z M362.672,89.717h-13.176c-1.41,0-2.684,0.146-3.824,0.432
		c-1.137,0.286-2.113,0.804-2.928,1.551c-0.814,0.745-1.438,1.751-1.871,3.011c-0.436,1.266-0.65,2.871-0.65,4.821
		c0,2.871,0.531,4.821,1.588,5.854c1.057,1.034,2.967,1.552,5.734,1.552c1.189,0,2.521-0.2,3.984-0.605
		c1.465-0.399,2.9-0.887,4.311-1.461c1.41-0.573,2.713-1.161,3.906-1.765c1.191-0.602,2.168-1.134,2.926-1.594V89.717z"/>
	<path fill="#FFFFFF" d="M403.914,51.663c0-0.572,0.096-0.943,0.289-1.114c0.191-0.172,0.51-0.26,0.953-0.26h2.154
		c0.715,0,1.078,0.461,1.078,1.379l0.002,57.592c0,0.52-0.07,0.861-0.209,1.034c-0.139,0.172-0.428,0.259-0.869,0.259h-2.156
		c-0.441,0-0.76-0.087-0.951-0.259c-0.193-0.173-0.289-0.515-0.289-1.034V105.3c-0.541,0.345-1.344,0.863-2.4,1.551
		c-1.057,0.687-2.264,1.349-3.619,1.979c-1.355,0.633-2.818,1.192-4.393,1.68c-1.574,0.486-3.119,0.73-4.639,0.73
		c-2.387,0-4.381-0.431-5.977-1.291c-1.602-0.861-2.877-2.166-3.822-3.917c-0.953-1.749-1.615-3.944-1.996-6.586
		c-0.379-2.638-0.568-5.709-0.568-9.211c0-3.672,0.215-6.901,0.648-9.686c0.436-2.784,1.223-5.121,2.359-7.017
		c1.139-1.892,2.686-3.326,4.639-4.303c1.953-0.976,4.447-1.463,7.482-1.463c1.629,0,3.443,0.184,5.449,0.548
		c2.006,0.366,4.23,1.112,6.67,2.238l0.166-0.087L403.914,51.663z M403.832,74.228c-2.439-0.805-4.678-1.381-6.711-1.726
		c-2.031-0.345-4-0.518-5.896-0.518c-2.008,0-3.66,0.319-4.965,0.95c-1.299,0.631-2.314,1.668-3.049,3.105
		c-0.73,1.439-1.248,3.338-1.547,5.698c-0.295,2.359-0.445,5.266-0.445,8.715c0,3.396,0.137,6.158,0.408,8.284
		c0.27,2.132,0.719,3.814,1.342,5.049c0.623,1.238,1.463,2.089,2.521,2.547c1.057,0.462,2.371,0.691,3.947,0.691
		c1.082,0,2.328-0.216,3.738-0.647c1.412-0.43,2.809-0.934,4.189-1.509c1.385-0.578,2.658-1.181,3.824-1.814
		c1.164-0.631,2.049-1.121,2.645-1.467L403.832,74.228z"/>
	<path fill="#FFFFFF" d="M432.303,111.241c-3.74,0-6.67-0.661-8.785-1.98c-2.113-1.319-3.699-3.057-4.758-5.209
		c-1.057-2.15-1.709-4.546-1.951-7.188c-0.248-2.638-0.369-5.307-0.369-8.004c0-2.181,0.152-4.506,0.447-6.974
		c0.299-2.467,1.004-4.749,2.117-6.844c1.109-2.095,2.709-3.831,4.797-5.209c2.088-1.378,4.922-2.066,8.502-2.066
		c3.631,0,6.531,0.589,8.703,1.765c2.166,1.176,3.822,2.754,4.961,4.735c1.139,1.982,1.887,4.234,2.238,6.758
		c0.354,2.527,0.529,5.139,0.529,7.836c0,2.639-0.137,5.294-0.408,7.961c-0.27,2.671-0.945,5.067-2.033,7.19
		c-1.084,2.125-2.725,3.86-4.92,5.207C439.178,110.567,436.156,111.241,432.303,111.241 M432.303,71.985
		c-2.389,0-4.313,0.388-5.775,1.166c-1.465,0.779-2.604,1.927-3.416,3.451c-0.813,1.527-1.369,3.367-1.668,5.524
		c-0.299,2.159-0.447,4.617-0.447,7.376c0,2.764,0.148,5.224,0.447,7.383c0.301,2.156,0.857,3.997,1.668,5.521
		c0.814,1.526,1.951,2.677,3.416,3.453c1.463,0.775,3.391,1.164,5.775,1.164c2.439,0,4.434-0.372,5.98-1.123
		c1.545-0.747,2.752-1.867,3.619-3.364c0.869-1.495,1.463-3.323,1.789-5.48c0.322-2.156,0.486-4.673,0.486-7.554
		c0-2.815-0.146-5.307-0.447-7.461c-0.301-2.16-0.881-3.985-1.748-5.482c-0.869-1.496-2.072-2.629-3.621-3.408
		C436.818,72.372,434.797,71.985,432.303,71.985"/>
	<path fill="#FFFFFF" d="M482.736,98.845c0,2.295-0.367,4.233-1.1,5.812c-0.73,1.579-1.75,2.84-3.049,3.786
		c-1.303,0.946-2.82,1.638-4.557,2.066c-1.736,0.432-3.576,0.645-5.533,0.645c-2.111,0-4.295-0.146-6.547-0.438
		c-2.248-0.294-4.025-0.732-5.326-1.319c-0.436-0.233-0.693-0.484-0.773-0.747c-0.082-0.263-0.096-0.539-0.039-0.834l0.244-1.138
		c0.051-0.515,0.379-0.773,0.975-0.773c0.869,0.116,1.859,0.229,2.971,0.345c1.111,0.113,2.207,0.214,3.295,0.301
		c1.082,0.086,2.098,0.173,3.049,0.257c0.949,0.087,1.693,0.13,2.234,0.13c3.199,0,5.572-0.543,7.119-1.631
		c1.545-1.088,2.318-3.006,2.318-5.759c0-1.485-0.121-2.718-0.365-3.691c-0.242-0.976-0.693-1.762-1.342-2.36
		c-0.65-0.603-1.549-1.092-2.688-1.465c-1.139-0.37-2.6-0.699-4.393-0.986c-1.953-0.344-3.738-0.728-5.367-1.159
		c-1.627-0.428-3.035-1.058-4.23-1.889c-1.193-0.831-2.127-1.918-2.807-3.264c-0.678-1.344-1.014-3.05-1.014-5.112
		c0-3.836,1.148-6.77,3.455-8.804c2.305-2.034,5.625-3.049,9.963-3.049c0.652,0,1.465,0.028,2.441,0.086
		c0.977,0.057,2.008,0.158,3.09,0.3c1.084,0.144,2.145,0.317,3.174,0.517c1.027,0.202,1.926,0.472,2.682,0.817
		c0.436,0.171,0.666,0.401,0.693,0.688c0.025,0.289,0.043,0.546,0.043,0.774l-0.326,1.551c-0.057,0.289-0.217,0.459-0.486,0.516
		c-0.275,0.059-0.602,0.059-0.977,0c-1.414-0.115-3.014-0.287-4.803-0.516c-1.787-0.229-3.658-0.345-5.609-0.345
		c-3.418,0-5.736,0.575-6.957,1.722c-1.221,1.149-1.83,3.013-1.83,5.595c0,1.378,0.176,2.47,0.531,3.272
		c0.35,0.805,0.893,1.45,1.625,1.938s1.678,0.861,2.848,1.119c1.164,0.259,2.563,0.53,4.188,0.817
		c1.844,0.345,3.58,0.731,5.205,1.164c1.631,0.43,3.023,1.075,4.191,1.934c1.166,0.862,2.086,2.022,2.766,3.488
		C482.395,94.67,482.734,96.551,482.736,98.845"/>
	<rect x="2.167" y="38.603" fill="#FFFFFF" width="95.094" height="100.641"/>
	<path fill="#004866" d="M46.753,93.769c-1.634,1.729-1.634,4.535,0,6.266c1.637,1.731,4.288,1.731,5.92,0
		c1.635-1.73,1.635-4.536,0-6.266C51.041,92.038,48.39,92.038,46.753,93.769 M41.612,88.325c-0.739,0.782-0.739,2.051,0,2.83
		c0.74,0.785,1.937,0.785,2.675,0c2.993-3.164,7.862-3.164,10.855,0c0.369,0.393,0.853,0.588,1.338,0.588
		c0.484,0,0.968-0.195,1.336-0.588c0.742-0.779,0.742-2.048,0-2.83C53.349,83.598,46.081,83.598,41.612,88.325 M38.188,86.707
		c0.484,0,0.968-0.196,1.338-0.587c5.618-5.946,14.76-5.943,20.376-0.002c0.739,0.786,1.936,0.786,2.675,0
		c0.739-0.781,0.739-2.047,0-2.831c-7.089-7.5-18.629-7.505-25.726,0c-0.739,0.782-0.739,2.05-0.002,2.831
		C37.219,86.511,37.703,86.707,38.188,86.707 M83.524,67.72H15.904c-1.305,0-2.365,1.122-2.365,2.503v37.399
		c0,1.385,1.06,2.505,2.365,2.505h67.621c1.306,0,2.365-1.12,2.365-2.505V70.223C85.889,68.842,84.831,67.72,83.524,67.72
		 M81.16,105.119H18.269V72.726H81.16V105.119z"/>
</g>
</svg>
