<?xml version="1.0" encoding="utf-8"?>
<!-- Generator: Adobe Illustrator 16.0.0, SVG Export Plug-In . SVG Version: 6.00 Build 0)  -->
<!DOCTYPE svg PUBLIC "-//W3C//DTD SVG 1.1//EN" "http://www.w3.org/Graphics/SVG/1.1/DTD/svg11.dtd">
<svg version="1.1" id="Layer_1" xmlns="http://www.w3.org/2000/svg" xmlns:xlink="http://www.w3.org/1999/xlink" x="0px" y="0px"
	 width="158.972px" height="48.43px" viewBox="0 0 158.972 48.43" enable-background="new 0 0 158.972 48.43" xml:space="preserve">
<path fill="#626466" d="M74.183,41.613c-5.768,0-7.211-2.462-7.211-6.786V24.401c0-0.265,0.165-0.361,0.427-0.425l1.77-0.427h0.098
	c0.23,0,0.295,0.23,0.295,0.427v11.111c0,3.082,1.081,4.46,4.621,4.46c4.262,0,4.59-2.098,4.59-4.56V24.401
	c0-0.265,0.196-0.361,0.426-0.425l1.771-0.427h0.099c0.229,0,0.326,0.23,0.326,0.427v10.785
	C81.394,38.005,80.937,41.613,74.183,41.613"/>
<path fill="#626466" d="M124.232,40.661c0,0.131-0.129,0.295-0.262,0.327c-0.722,0.229-2.129,0.624-4,0.624
	c-3.244,0-4.783-1.41-4.783-4.559V19.025c0-0.263,0.162-0.36,0.393-0.392l1.77-0.461h0.098c0.23,0,0.328,0.229,0.328,0.427v5.377
	h5.51c0.292,0,0.488,0.194,0.488,0.49v1.116c0,0.296-0.196,0.491-0.488,0.491h-5.51v11.243c0,1.804,0.984,2.196,2.688,2.196
	c1.019,0,2.326-0.263,3.017-0.428h0.097c0.167,0,0.297,0.1,0.36,0.295l0.295,1.213V40.661z"/>
<path fill="#626466" d="M147.14,24.4c-0.135-0.194-0.299-0.425-0.592-0.425h-2.086c-0.164,0-0.295,0.196-0.295,0.393
	c0,0.067,0.033,0.165,0.096,0.23l5.789,7.978l-5.789,7.951c-0.063,0.067-0.096,0.167-0.096,0.265c0,0.229,0.131,0.393,0.36,0.393
	h2.042c0.165,0,0.361-0.13,0.459-0.261l4.542-6.259l4.54,6.259c0.096,0.131,0.292,0.261,0.459,0.261h2.042
	c0.229,0,0.36-0.164,0.36-0.393c0-0.098-0.031-0.197-0.099-0.265L147.14,24.4z"/>
<path fill="#626466" d="M153.869,31.001c0.215,0.214,0.411-0.075,0.411-0.075l4.594-6.326c0.065-0.066,0.099-0.164,0.099-0.231
	c0-0.197-0.131-0.392-0.297-0.392h-2.086c-0.295,0-0.457,0.229-0.588,0.424l-3.242,4.448c0,0-0.266,0.282-0.049,0.566
	C152.776,29.493,153.53,30.537,153.869,31.001"/>
<path fill="#626466" d="M95.326,24.617c-0.016-0.26-0.25-0.347-0.349-0.373c-1.069-0.337-4.719-0.913-7.267-0.538
	c-0.006,0-0.006,0.001-0.008,0.002c-0.057,0.008-0.125,0.012-0.174,0.021c-0.686,0.118-1.207,0.399-1.424,0.617
	c-0.365,0.362-0.471,0.895-0.47,1.794v14.556c0,0.293,0.164,0.488,0.458,0.488h0.031h1.345h0.299c0.291,0,0.457-0.195,0.457-0.488
	V25.935c0.11-0.006,0.205-0.01,0.324-0.018c2.521-0.145,4.702,0.221,6.061,0.47c0.064-0.002,0.136,0.026,0.198,0.022
	c0.132-0.007,0.259-0.08,0.313-0.282l0.207-1.442L95.326,24.617z"/>
<path fill="#626466" d="M109.16,24.404c-0.951-0.526-2.587-0.821-4.785-0.855c-1.631-0.033-4.656,0.268-5.705,0.66
	c-0.097,0.033-0.326,0.132-0.326,0.392v0.067l0.295,1.475c0.064,0.197,0.195,0.262,0.326,0.262c0.067,0,0.134-0.031,0.197-0.031
	c1.344-0.329,2.903-0.633,4.92-0.594c1.441,0,2.357,0.13,2.98,0.393c1.146,0.427,1.18,1.279,1.18,2.326v10.425
	c-1.377,0.458-2.859,0.63-4.303,0.63c-2.162,0-4.984-0.202-4.984-3.48c0-2.592,1.895-3.06,3.291-3.06h2.127h1.953
	c0.199,0,0.336-0.134,0.336-0.335v-1.437c0-0.202-0.137-0.335-0.336-0.335h-4.279c-2.557,0-5.607,0.98-5.607,5.233
	c0,5.311,4.625,5.472,7.445,5.472c1.736,0,3.309-0.263,4.261-0.459c2.261-0.557,2.72-1.083,2.72-3.376v-9.409
	C110.865,26.828,110.832,25.288,109.16,24.404"/>
<path fill="#626466" d="M140.547,26.466c-1.084-1.867-3.021-2.916-6.462-2.916c-6.492,0-7.604,3.508-7.604,9.047
	c0,6.03,1.9,9.016,8.326,9.016c2.161,0,4.33-0.429,5.638-0.95c0.193-0.1,0.396-0.249,0.327-0.493
	c-0.067-0.246-0.36-1.246-0.36-1.246c-0.104-0.335-0.377-0.277-0.436-0.259c-0.035,0.008-0.209,0.064-0.27,0.082
	c-0.928,0.259-1.674,0.476-2.676,0.615c-0.556,0.077-1.267,0.153-1.963,0.153c-2.293,0-3.898-0.364-4.849-1.574
	c-0.468-0.577-0.767-1.229-0.914-2.148c-0.028-0.188-0.103-1.26-0.112-1.563c-0.058-1.536-0.016-2.477-0.012-2.612
	c0.034-1.064,0.096-2.166,0.382-3.216c0.556-2.099,1.834-2.789,4.456-2.789c2.656,0,3.936,0.69,4.523,2.789
	c0.296,1.211,0.361,2.153,0.396,3.399h-7.819c-0.201,0-0.334,0.134-0.334,0.334v1.479c0,0.201,0.133,0.335,0.334,0.335h9.979
	c0.234,0,0.498-0.253,0.498-0.547v-1.436C141.595,29.705,141.402,27.941,140.547,26.466"/>
<path fill="#626466" d="M53.455,39.076c-0.324,0.017-1.041,0.043-1.812,0.055c-0.616,0.014-1.171,0.009-1.567,0.009
	c-0.517-0.001-1.083-0.012-1.582-0.039v-9.33v-9.332c0.499-0.027,1.065-0.034,1.582-0.034c0.396-0.004,0.951-0.005,1.567,0.005
	c0.771,0.012,1.488,0.04,1.812,0.055c4.622,0.238,6.985,1.61,7.004,9.307C60.44,37.467,58.077,38.838,53.455,39.076 M55.129,18.129
	c-0.596-0.091-2.963-0.199-5.2-0.199c-1.373,0-3.695,0.086-3.695,0.086c-0.295,0-0.526,0.229-0.526,0.523v11.231v11.231
	c0,0.293,0.231,0.524,0.526,0.524c0,0,2.322,0.084,3.695,0.084c2.237,0,4.604-0.108,5.2-0.201c5.224-0.486,8.18-2.662,8.184-11.639
	C63.309,20.794,60.353,18.617,55.129,18.129"/>
<g>
	<defs>
		<path id="SVGID_1_" d="M14.983,0.006c-0.011,0.007-0.021,0.031,0.002,0.071c15.671,23.745,1.846,45.532-9.403,40.352
			c3.642,7.05,10.019,9.026,15.28,7.535c12.535-3.557,21.457-26.763-5.818-47.947c-0.001-0.002-0.012-0.011-0.019-0.013
			C15.02,0.001,15.014,0,15.007,0C14.999,0,14.99,0.001,14.983,0.006"/>
	</defs>
	<clipPath id="SVGID_2_">
		<use xlink:href="#SVGID_1_"  overflow="visible"/>
	</clipPath>
	
		<linearGradient id="SVGID_3_" gradientUnits="userSpaceOnUse" x1="-893.9751" y1="590.1982" x2="-892.9747" y2="590.1982" gradientTransform="matrix(0.064 36.6438 36.6438 -0.064 -21546.0586 32808.2813)">
		<stop  offset="0" style="stop-color:#00ABBD"/>
		<stop  offset="0.1365" style="stop-color:#009CB0"/>
		<stop  offset="0.7212" style="stop-color:#00607B"/>
		<stop  offset="1" style="stop-color:#004866"/>
	</linearGradient>
	<polygon clip-path="url(#SVGID_2_)" fill="url(#SVGID_3_)" points="42.319,-0.063 42.406,49.455 5.583,49.52 5.496,0.001 	"/>
</g>
<g>
	<defs>
		<path id="SVGID_4_" d="M17.252,16.438c-1.19,4.129-12.756,6.799-15.987,11.808c-3.332,5.164,0.549,9.938,4.317,12.184
			C1.96,30.806,21.02,27.482,17.322,16.445c-0.008-0.022-0.024-0.034-0.038-0.034C17.27,16.411,17.258,16.42,17.252,16.438"/>
	</defs>
	<clipPath id="SVGID_5_">
		<use xlink:href="#SVGID_4_"  overflow="visible"/>
	</clipPath>
	
		<linearGradient id="SVGID_6_" gradientUnits="userSpaceOnUse" x1="-899.3628" y1="606.4326" x2="-898.3628" y2="606.4326" gradientTransform="matrix(1.7381 21.602 21.602 -1.7381 -11528.3262 20500.7734)">
		<stop  offset="0" style="stop-color:#00ABBD"/>
		<stop  offset="0.1365" style="stop-color:#009CB0"/>
		<stop  offset="0.7212" style="stop-color:#00607B"/>
		<stop  offset="1" style="stop-color:#004866"/>
	</linearGradient>
	<polygon clip-path="url(#SVGID_5_)" fill="url(#SVGID_6_)" points="20.871,14.565 22.939,40.273 -1.918,42.273 -3.986,16.565 	"/>
</g>
<g>
</g>
<g>
</g>
<g>
</g>
<g>
</g>
<g>
</g>
<g>
</g>
<g>
</g>
<g>
</g>
<g>
</g>
<g>
</g>
<g>
</g>
<g>
</g>
<g>
</g>
<g>
</g>
<g>
</g>
</svg>
