<?xml version="1.0" encoding="utf-8"?>
<!-- Generator: Adobe Illustrator 16.0.0, SVG Export Plug-In . SVG Version: 6.00 Build 0)  -->
<!DOCTYPE svg PUBLIC "-//W3C//DTD SVG 1.1//EN" "http://www.w3.org/Graphics/SVG/1.1/DTD/svg11.dtd">
<svg version="1.1" id="Layer_1" xmlns="http://www.w3.org/2000/svg" xmlns:xlink="http://www.w3.org/1999/xlink" x="0px" y="0px"
	 width="960px" height="560px" viewBox="0 0 960 560" enable-background="new 0 0 960 560" xml:space="preserve">
<path fill="#FFFFFF" d="M445.583,344c-7.049,0-8.813-3.009-8.813-8.295v-12.744c0-0.321,0.2-0.441,0.521-0.519l2.163-0.521h0.121
	c0.28,0,0.361,0.282,0.361,0.521v13.582c0,3.767,1.321,5.45,5.647,5.45c5.211,0,5.611-2.563,5.611-5.571v-12.942
	c0-0.321,0.241-0.441,0.521-0.519l2.164-0.521h0.12c0.28,0,0.399,0.282,0.399,0.521v13.184C454.398,339.59,453.839,344,445.583,344"
	/>
<path fill="#FFFFFF" d="M506.759,342.837c0,0.159-0.159,0.359-0.32,0.399c-0.882,0.279-2.602,0.765-4.89,0.765
	c-3.965,0-5.848-1.726-5.848-5.573v-22.037c0-0.32,0.199-0.44,0.481-0.478l2.164-0.563h0.119c0.28,0,0.401,0.279,0.401,0.521v6.572
	h6.732c0.357,0,0.598,0.238,0.598,0.599v1.366c0,0.36-0.24,0.599-0.598,0.599h-6.732v13.743c0,2.205,1.202,2.686,3.284,2.686
	c1.244,0,2.845-0.323,3.688-0.523h0.118c0.204,0,0.362,0.121,0.441,0.36l0.36,1.484V342.837z"/>
<path fill="#FFFFFF" d="M534.757,322.961c-0.163-0.238-0.364-0.52-0.723-0.52h-2.549c-0.201,0-0.361,0.238-0.361,0.479
	c0,0.083,0.041,0.202,0.119,0.282l7.075,9.751l-7.075,9.72c-0.078,0.082-0.119,0.204-0.119,0.323c0,0.278,0.16,0.479,0.44,0.479
	h2.498c0.199,0,0.44-0.159,0.561-0.316l5.551-7.652l5.549,7.652c0.117,0.157,0.358,0.316,0.562,0.316h2.496
	c0.28,0,0.439-0.2,0.439-0.479c0-0.119-0.038-0.241-0.12-0.323L534.757,322.961z"/>
<path fill="#FFFFFF" d="M542.982,331.029c0.263,0.262,0.503-0.093,0.503-0.093l5.614-7.733c0.081-0.081,0.121-0.2,0.121-0.282
	c0-0.24-0.16-0.479-0.363-0.479h-2.549c-0.36,0-0.56,0.281-0.72,0.519l-3.962,5.438c0,0-0.325,0.345-0.061,0.692
	C541.646,329.186,542.569,330.462,542.982,331.029"/>
<path fill="#FFFFFF" d="M471.426,323.227c-0.018-0.319-0.304-0.426-0.427-0.456c-1.306-0.411-5.767-1.117-8.883-0.659
	c-0.005,0-0.005,0.002-0.005,0.002c-0.071,0.012-0.155,0.018-0.216,0.026c-0.838,0.146-1.476,0.488-1.74,0.755
	c-0.446,0.442-0.574,1.093-0.573,2.192v17.791c0,0.358,0.2,0.598,0.558,0.598h0.041h1.642h0.365c0.357,0,0.559-0.239,0.559-0.598
	v-18.042c0.136-0.006,0.251-0.012,0.396-0.021c3.081-0.178,5.747,0.271,7.408,0.575c0.079-0.003,0.164,0.032,0.243,0.027
	c0.16-0.008,0.315-0.099,0.381-0.346l0.254-1.764L471.426,323.227z"/>
<path fill="#FFFFFF" d="M488.336,322.965c-1.164-0.643-3.163-1.003-5.85-1.044c-1.992-0.042-5.691,0.324-6.974,0.807
	c-0.119,0.041-0.399,0.161-0.399,0.479v0.082l0.36,1.803c0.079,0.241,0.241,0.317,0.399,0.317c0.083,0,0.164-0.035,0.241-0.035
	c1.644-0.403,3.55-0.774,6.015-0.727c1.76,0,2.881,0.157,3.643,0.479c1.4,0.521,1.441,1.564,1.441,2.845v12.74
	c-1.682,0.563-3.496,0.772-5.259,0.772c-2.643,0-6.094-0.248-6.094-4.255c0-3.167,2.317-3.74,4.024-3.74h2.6h2.389
	c0.244,0,0.41-0.163,0.41-0.41v-1.754c0-0.247-0.166-0.41-0.41-0.41h-5.232c-3.125,0-6.853,1.199-6.853,6.398
	c0,6.488,5.653,6.686,9.1,6.686c2.122,0,4.044-0.32,5.209-0.561c2.762-0.681,3.325-1.324,3.325-4.127v-11.499
	C490.421,325.927,490.378,324.045,488.336,322.965"/>
<path fill="#FFFFFF" d="M526.699,325.486c-1.322-2.283-3.69-3.566-7.898-3.566c-7.935,0-9.294,4.289-9.294,11.061
	c0,7.369,2.323,11.02,10.177,11.02c2.644,0,5.291-0.524,6.892-1.164c0.236-0.12,0.481-0.302,0.399-0.602s-0.438-1.522-0.438-1.522
	c-0.128-0.409-0.463-0.339-0.533-0.316c-0.044,0.01-0.256,0.079-0.331,0.099c-1.133,0.318-2.046,0.584-3.271,0.754
	c-0.678,0.095-1.547,0.188-2.397,0.188c-2.803,0-4.766-0.444-5.928-1.925c-0.572-0.704-0.938-1.504-1.115-2.628
	c-0.037-0.227-0.128-1.537-0.138-1.907c-0.072-1.876-0.02-3.028-0.016-3.195c0.043-1.3,0.116-2.646,0.467-3.929
	c0.68-2.566,2.242-3.408,5.448-3.408c3.245,0,4.81,0.842,5.529,3.408c0.36,1.48,0.44,2.633,0.482,4.154h-9.559
	c-0.245,0-0.407,0.163-0.407,0.408v1.811c0,0.246,0.162,0.406,0.407,0.406h12.197c0.286,0,0.609-0.308,0.609-0.667v-1.755
	C527.981,329.444,527.742,327.29,526.699,325.486"/>
<path fill="#FFFFFF" d="M420.248,340.898c-0.396,0.021-1.271,0.053-2.214,0.068c-0.754,0.015-1.432,0.009-1.917,0.009
	c-0.631-0.002-1.323-0.015-1.931-0.046v-11.405v-11.406c0.608-0.034,1.3-0.043,1.931-0.043c0.485-0.004,1.163-0.005,1.917,0.008
	c0.943,0.014,1.818,0.05,2.214,0.068c5.65,0.289,8.539,1.965,8.562,11.373C428.787,338.932,425.898,340.609,420.248,340.898
	 M422.294,315.297c-0.727-0.111-3.621-0.245-6.355-0.245c-1.678,0-4.518,0.104-4.518,0.104c-0.358,0-0.642,0.28-0.642,0.642v13.727
	v13.729c0,0.358,0.284,0.642,0.642,0.642c0,0,2.84,0.103,4.518,0.103c2.734,0,5.628-0.133,6.355-0.246
	c6.385-0.595,9.999-3.254,10.004-14.227C432.293,318.553,428.679,315.893,422.294,315.297"/>
<path fill="#FFFFFF" d="M477.18,216.039c27.441,41.585,3.231,79.735-16.47,70.664c6.381,12.345,17.55,15.809,26.762,13.197
	c21.951-6.229,37.576-46.868-10.187-83.969c-0.005-0.004-0.025-0.017-0.036-0.021c-0.02-0.009-0.051-0.009-0.074,0.004
	C477.159,215.925,477.138,215.967,477.18,216.039"/>
<path fill="#FFFFFF" d="M460.709,286.702c-6.594-3.93-13.394-12.292-7.556-21.334c5.658-8.771,25.913-13.445,27.994-20.679
	c0.021-0.063,0.097-0.063,0.123,0.016C487.746,264.029,454.371,269.854,460.709,286.702"/>
<g>
</g>
<g>
</g>
<g>
</g>
<g>
</g>
<g>
</g>
<g>
</g>
<g>
</g>
<g>
</g>
<g>
</g>
<g>
</g>
<g>
</g>
<g>
</g>
<g>
</g>
<g>
</g>
<g>
</g>
</svg>
