<?xml version="1.0" encoding="utf-8"?>
<!-- Generator: Adobe Illustrator 16.0.0, SVG Export Plug-In . SVG Version: 6.00 Build 0)  -->
<!DOCTYPE svg PUBLIC "-//W3C//DTD SVG 1.1//EN" "http://www.w3.org/Graphics/SVG/1.1/DTD/svg11.dtd">
<svg version="1.1" id="Layer_1" xmlns="http://www.w3.org/2000/svg" xmlns:xlink="http://www.w3.org/1999/xlink" x="0px" y="0px"
	 width="960px" height="560px" viewBox="0 0 960 560" enable-background="new 0 0 960 560" xml:space="preserve">
<rect x="384.881" y="250.682" fill="#9ACA3C" width="246.87" height="56.901"/>
<path fill="#FFFFFF" d="M411.402,267.169c0.421,0,0.94,0.017,1.558,0.049c0.616,0.033,1.249,0.089,1.898,0.17
	c0.648,0.081,1.281,0.187,1.898,0.316c0.616,0.131,1.168,0.293,1.655,0.487c0.26,0.098,0.397,0.228,0.414,0.39
	c0.015,0.162,0.024,0.308,0.024,0.438l-0.195,0.827c-0.032,0.163-0.13,0.26-0.292,0.292c-0.162,0.033-0.357,0.033-0.584,0
	c-0.422-0.032-0.9-0.08-1.436-0.146c-0.535-0.065-1.094-0.122-1.679-0.17c-0.584-0.049-1.16-0.089-1.728-0.122
	c-0.568-0.032-1.095-0.049-1.582-0.049c-1.265,0-2.311,0.156-3.139,0.464c-0.828,0.309-1.477,0.838-1.947,1.586
	c-0.47,0.748-0.796,1.74-0.973,2.976c-0.179,1.237-0.268,2.781-0.268,4.636c0,1.919,0.097,3.522,0.292,4.806
	c0.195,1.285,0.527,2.31,0.998,3.074c0.47,0.765,1.111,1.31,1.923,1.635c0.81,0.326,1.85,0.488,3.115,0.488
	c0.323,0,0.762-0.017,1.314-0.049c0.551-0.033,1.144-0.074,1.777-0.123c0.633-0.048,1.266-0.097,1.897-0.146
	c0.633-0.048,1.209-0.104,1.729-0.17c0.39,0,0.6,0.146,0.633,0.438l0.145,0.62c0.032,0.159,0.017,0.312-0.049,0.453
	c-0.065,0.144-0.226,0.279-0.486,0.406c-0.778,0.317-1.817,0.557-3.115,0.715c-1.298,0.159-2.564,0.239-3.796,0.239
	c-2.013,0-3.627-0.309-4.844-0.926c-1.217-0.615-2.149-1.476-2.799-2.58c-0.649-1.103-1.079-2.408-1.289-3.918
	c-0.212-1.508-0.317-3.154-0.317-4.94c0-1.589,0.105-3.122,0.316-4.599c0.211-1.476,0.641-2.775,1.29-3.894
	c0.649-1.12,1.582-2.012,2.799-2.677C407.776,267.502,409.389,267.169,411.402,267.169"/>
<path fill="#FFFFFF" d="M431.553,291.749c-2.239,0-3.991-0.373-5.257-1.118c-1.265-0.746-2.215-1.729-2.848-2.945
	c-0.632-1.217-1.022-2.571-1.168-4.064c-0.146-1.492-0.219-3.001-0.219-4.526c0-1.233,0.089-2.548,0.267-3.943
	c0.178-1.395,0.601-2.685,1.266-3.87c0.665-1.184,1.622-2.166,2.872-2.945c1.249-0.779,2.944-1.168,5.086-1.168
	c2.174,0,3.91,0.333,5.208,0.998c1.298,0.665,2.288,1.557,2.97,2.677c0.68,1.12,1.127,2.394,1.338,3.821
	c0.211,1.428,0.316,2.905,0.316,4.43c0,1.492-0.081,2.993-0.243,4.5c-0.162,1.511-0.568,2.865-1.217,4.065
	c-0.649,1.201-1.63,2.183-2.944,2.945C435.665,291.368,433.857,291.749,431.553,291.749 M431.552,269.554
	c-1.428,0-2.579,0.22-3.456,0.659c-0.876,0.44-1.557,1.09-2.044,1.952c-0.486,0.863-0.819,1.903-0.998,3.123
	c-0.179,1.22-0.268,2.61-0.268,4.171c0,1.563,0.089,2.953,0.268,4.174c0.179,1.219,0.512,2.26,0.999,3.121
	c0.486,0.863,1.168,1.514,2.044,1.952s2.027,0.659,3.456,0.659c1.46,0,2.652-0.212,3.577-0.635c0.925-0.424,1.647-1.057,2.166-1.903
	c0.519-0.845,0.876-1.878,1.07-3.098c0.195-1.22,0.292-2.644,0.292-4.271c0-1.593-0.089-3.001-0.267-4.22
	c-0.179-1.221-0.527-2.253-1.047-3.099c-0.52-0.846-1.241-1.487-2.166-1.927C434.253,269.774,433.044,269.554,431.552,269.554"/>
<path fill="#FFFFFF" d="M461.609,273.059c-0.114-0.876-0.325-1.574-0.633-2.093c-0.309-0.519-0.755-0.884-1.339-1.095
	s-1.346-0.317-2.288-0.317c-0.649,0-1.403,0.122-2.262,0.365c-0.861,0.244-1.712,0.536-2.556,0.876
	c-0.844,0.341-1.614,0.682-2.312,1.023c-0.698,0.341-1.225,0.608-1.582,0.803v18.009c0,0.487-0.227,0.73-0.681,0.73h-1.265
	c-0.261,0-0.431-0.05-0.512-0.146s-0.121-0.292-0.121-0.584l-0.001-22.244c0-0.292,0.04-0.487,0.122-0.584
	c0.08-0.098,0.251-0.146,0.511-0.146h1.266c0.259,0,0.438,0.041,0.535,0.122s0.146,0.284,0.146,0.608l0.007,2.142
	c0.325-0.227,0.806-0.527,1.44-0.901c0.634-0.372,1.366-0.737,2.195-1.095c0.83-0.356,1.717-0.673,2.66-0.949
	c0.943-0.275,1.888-0.414,2.831-0.414c1.496,0,2.684,0.203,3.563,0.609c0.878,0.406,1.553,0.99,2.025,1.752
	c0.472,0.763,0.78,1.679,0.927,2.75c0.146,1.071,0.22,2.272,0.22,3.602v14.748c0,0.487-0.248,0.73-0.743,0.73h-1.339
	c-0.264,0-0.437-0.05-0.52-0.146c-0.082-0.097-0.123-0.292-0.123-0.584l-0.001-14.213
	C461.779,275.055,461.722,273.935,461.609,273.059"/>
<path fill="#FFFFFF" d="M478.716,267.17c2.045,0,3.691,0.309,4.94,0.925c1.249,0.617,2.23,1.42,2.945,2.409
	c0.713,0.99,1.192,2.126,1.436,3.407c0.243,1.283,0.366,2.589,0.366,3.919c0,0.746-0.14,1.331-0.415,1.752
	c-0.276,0.422-0.803,0.633-1.582,0.633H471.95c0.065,1.623,0.187,3.01,0.367,4.161c0.177,1.153,0.502,2.086,0.972,2.799
	c0.471,0.714,1.136,1.233,1.996,1.558s2.003,0.487,3.432,0.487c0.486,0,1.07-0.024,1.752-0.074c0.682-0.048,1.378-0.112,2.093-0.194
	c0.714-0.08,1.402-0.153,2.068-0.219c0.664-0.064,1.208-0.113,1.631-0.146c0.323-0.032,0.534,0.097,0.633,0.389l0.146,0.779
	c0.097,0.356-0.082,0.633-0.536,0.827c-0.389,0.13-0.908,0.268-1.558,0.414c-0.649,0.146-1.347,0.275-2.093,0.39
	c-0.746,0.112-1.5,0.202-2.262,0.267c-0.763,0.065-1.453,0.098-2.069,0.098c-2.174,0-3.886-0.34-5.135-1.022
	c-1.249-0.681-2.191-1.589-2.823-2.725c-0.633-1.136-1.031-2.459-1.193-3.968c-0.163-1.51-0.244-3.074-0.244-4.697
	c0-1.395,0.081-2.815,0.244-4.259c0.162-1.443,0.56-2.75,1.193-3.918c0.632-1.168,1.589-2.125,2.871-2.871
	C474.717,267.544,476.478,267.17,478.716,267.17 M478.716,269.555c-1.492,0-2.669,0.188-3.528,0.564
	c-0.861,0.375-1.526,0.921-1.996,1.64c-0.471,0.717-0.779,1.599-0.925,2.643c-0.146,1.045-0.252,2.236-0.317,3.574h13.629
	c-0.033-1.012-0.114-2.024-0.243-3.035c-0.13-1.012-0.431-1.918-0.9-2.718c-0.471-0.799-1.152-1.443-2.045-1.933
	C481.498,269.8,480.274,269.555,478.716,269.555"/>
<path fill="#FFFFFF" d="M501.787,267.17c0.422,0,0.94,0.017,1.559,0.049c0.615,0.033,1.248,0.089,1.897,0.17
	c0.648,0.081,1.281,0.187,1.898,0.316c0.616,0.131,1.168,0.293,1.655,0.487c0.26,0.098,0.396,0.228,0.414,0.39
	c0.015,0.162,0.023,0.308,0.023,0.438l-0.195,0.827c-0.031,0.163-0.13,0.26-0.291,0.292c-0.162,0.033-0.357,0.033-0.584,0
	c-0.423-0.032-0.9-0.08-1.437-0.146c-0.535-0.065-1.095-0.122-1.679-0.17c-0.584-0.049-1.16-0.089-1.729-0.122
	c-0.568-0.032-1.095-0.049-1.582-0.049c-1.265,0-2.311,0.156-3.139,0.464c-0.828,0.309-1.477,0.838-1.947,1.586
	c-0.47,0.748-0.796,1.74-0.973,2.976c-0.18,1.237-0.269,2.781-0.269,4.636c0,1.918,0.097,3.522,0.292,4.806s0.527,2.31,0.998,3.073
	c0.471,0.766,1.111,1.311,1.924,1.636c0.81,0.325,1.85,0.487,3.114,0.487c0.323,0,0.763-0.016,1.313-0.049
	c0.552-0.031,1.145-0.072,1.777-0.121s1.266-0.098,1.897-0.146c0.633-0.048,1.209-0.105,1.729-0.17c0.389,0,0.6,0.146,0.633,0.438
	l0.145,0.621c0.032,0.159,0.018,0.312-0.049,0.453c-0.065,0.143-0.227,0.279-0.486,0.406c-0.777,0.318-1.816,0.557-3.115,0.715
	c-1.298,0.159-2.563,0.239-3.795,0.239c-2.014,0-3.628-0.31-4.845-0.925c-1.217-0.616-2.149-1.477-2.799-2.58
	s-1.079-2.409-1.289-3.918c-0.212-1.51-0.317-3.155-0.317-4.941c0-1.589,0.105-3.122,0.316-4.599
	c0.211-1.476,0.641-2.775,1.29-3.894c0.649-1.12,1.582-2.012,2.799-2.677S499.774,267.17,501.787,267.17"/>
<path fill="#FFFFFF" d="M525.055,290.291c0.03,0.194,0.016,0.34-0.05,0.438s-0.163,0.18-0.292,0.244
	c-0.227,0.097-0.536,0.193-0.925,0.292c-0.39,0.097-0.812,0.187-1.265,0.267c-0.455,0.081-0.926,0.139-1.412,0.172
	c-0.487,0.03-0.942,0.047-1.363,0.047c-1.827,0-3.063-0.414-3.707-1.24c-0.645-0.828-0.966-2.02-0.966-3.578v-17.084h-2.823
	c-0.389,0-0.584-0.179-0.584-0.536v-1.071c0-0.389,0.195-0.584,0.584-0.584h2.871v-5.403c0-0.357,0.184-0.584,0.546-0.681
	l1.438-0.438c0.297-0.097,0.486-0.097,0.569,0c0.082,0.097,0.124,0.276,0.124,0.535v5.987l5.354,0.001
	c0.26,0,0.414,0.041,0.463,0.121c0.049,0.082,0.074,0.219,0.074,0.414v1.119c0,0.195-0.025,0.333-0.074,0.414
	c-0.049,0.082-0.203,0.122-0.463,0.122h-5.354v16.256c0,0.553,0.032,1.021,0.098,1.412c0.064,0.389,0.211,0.714,0.438,0.975
	c0.229,0.258,0.561,0.453,0.998,0.584c0.439,0.129,1.014,0.194,1.729,0.194c0.162,0,0.381-0.008,0.656-0.024
	c0.275-0.016,0.567-0.033,0.877-0.049c0.309-0.016,0.6-0.031,0.877-0.049c0.274-0.016,0.51-0.04,0.704-0.072
	c0.261-0.033,0.431-0.017,0.513,0.049c0.08,0.064,0.152,0.193,0.219,0.389L525.055,290.291z"/>
<path fill="#FFFFFF" d="M543.646,288.587c-0.715,0.422-1.429,0.82-2.141,1.192c-0.715,0.373-1.479,0.705-2.289,0.998
	c-0.811,0.291-1.672,0.527-2.58,0.705c-0.908,0.179-1.896,0.268-2.969,0.268c-2.207,0-3.797-0.544-4.77-1.635
	c-0.974-1.092-1.461-2.711-1.461-4.86c0-2.767,0.689-4.802,2.068-6.104c1.379-1.302,3.594-1.954,6.644-1.954h7.545v-2.177
	c0-0.966-0.09-1.788-0.268-2.465c-0.179-0.677-0.503-1.234-0.974-1.669c-0.471-0.435-1.112-0.757-1.922-0.967
	c-0.813-0.21-1.834-0.315-3.066-0.315c-1.04,0-2.191,0.049-3.457,0.146c-1.264,0.098-2.465,0.211-3.602,0.341
	c-0.455,0.033-0.697-0.081-0.73-0.341l-0.194-0.876c0-0.324,0.179-0.567,0.535-0.73c0.521-0.195,1.12-0.357,1.802-0.487
	c0.682-0.129,1.378-0.235,2.094-0.316c0.713-0.081,1.402-0.138,2.067-0.171c0.665-0.031,1.257-0.048,1.776-0.048
	c1.818,0,3.287,0.17,4.406,0.511c1.119,0.341,1.994,0.86,2.627,1.557c0.633,0.699,1.063,1.575,1.291,2.629
	c0.226,1.055,0.34,2.28,0.34,3.675l0.002,11.973c0,0.455,0.031,0.803,0.096,1.047c0.064,0.243,0.171,0.43,0.316,0.561
	c0.146,0.13,0.349,0.218,0.608,0.267c0.261,0.05,0.601,0.091,1.023,0.122c0.355,0,0.534,0.146,0.534,0.438v0.974
	c0,0.163-0.049,0.292-0.146,0.39c-0.099,0.098-0.292,0.178-0.585,0.243c-1.59,0.162-2.725,0.05-3.406-0.341
	c-0.682-0.389-1.07-1.248-1.169-2.579H543.646z M543.694,279.582h-7.885c-0.844,0-1.606,0.082-2.288,0.244
	c-0.681,0.162-1.266,0.454-1.752,0.876s-0.859,0.989-1.12,1.703c-0.26,0.715-0.389,1.622-0.389,2.726
	c0,1.623,0.317,2.727,0.95,3.311c0.632,0.584,1.775,0.875,3.431,0.875c0.713,0,1.509-0.112,2.385-0.34s1.735-0.502,2.58-0.828
	c0.843-0.323,1.622-0.656,2.336-0.998c0.714-0.34,1.298-0.64,1.752-0.9V279.582z"/>
<path fill="#FFFFFF" d="M568.371,258.066c0-0.323,0.058-0.533,0.174-0.63c0.115-0.097,0.305-0.146,0.57-0.146h1.288
	c0.429,0,0.646,0.26,0.646,0.779l0.001,32.563c0,0.291-0.042,0.485-0.124,0.584c-0.083,0.097-0.258,0.146-0.521,0.146h-1.289
	c-0.265,0-0.455-0.049-0.57-0.146c-0.115-0.099-0.172-0.293-0.172-0.584v-2.24c-0.324,0.195-0.804,0.486-1.437,0.875
	c-0.633,0.39-1.354,0.764-2.166,1.119c-0.812,0.358-1.687,0.674-2.628,0.951c-0.941,0.274-1.867,0.412-2.775,0.412
	c-1.429,0-2.621-0.242-3.576-0.729c-0.959-0.487-1.722-1.224-2.289-2.214c-0.568-0.99-0.965-2.231-1.192-3.725
	c-0.228-1.492-0.341-3.228-0.341-5.208c0-2.076,0.129-3.902,0.389-5.476c0.26-1.574,0.73-2.896,1.412-3.967
	c0.682-1.07,1.605-1.881,2.775-2.433c1.168-0.552,2.66-0.828,4.477-0.828c0.975,0,2.061,0.104,3.262,0.31
	c1.199,0.207,2.53,0.629,3.99,1.266l0.1-0.049L568.371,258.066z M568.322,270.824c-1.46-0.455-2.799-0.781-4.016-0.976
	c-1.217-0.195-2.393-0.293-3.528-0.293c-1.2,0-2.19,0.18-2.97,0.537c-0.778,0.357-1.387,0.943-1.825,1.756
	c-0.437,0.814-0.746,1.887-0.925,3.221c-0.178,1.334-0.268,2.977-0.268,4.928c0,1.92,0.082,3.481,0.244,4.685
	c0.162,1.205,0.43,2.156,0.803,2.854c0.373,0.7,0.877,1.18,1.509,1.439c0.633,0.262,1.42,0.392,2.362,0.392
	c0.647,0,1.394-0.122,2.237-0.366c0.845-0.244,1.681-0.529,2.507-0.854c0.828-0.326,1.59-0.667,2.289-1.025
	c0.696-0.357,1.225-0.634,1.582-0.829L568.322,270.824z"/>
<path fill="#FFFFFF" d="M585.359,291.75c-2.238,0-3.992-0.373-5.258-1.118c-1.265-0.746-2.214-1.728-2.847-2.945
	c-0.632-1.216-1.022-2.571-1.168-4.063c-0.147-1.492-0.22-3.001-0.22-4.526c0-1.233,0.09-2.548,0.268-3.943s0.6-2.685,1.266-3.87
	c0.664-1.184,1.622-2.166,2.871-2.945c1.249-0.779,2.945-1.168,5.088-1.168c2.172,0,3.908,0.333,5.207,0.998
	c1.297,0.665,2.287,1.557,2.969,2.677s1.127,2.394,1.34,3.821c0.209,1.428,0.315,2.905,0.315,4.43c0,1.492-0.081,2.993-0.243,4.501
	c-0.162,1.51-0.567,2.865-1.217,4.064c-0.648,1.201-1.631,2.184-2.943,2.945C589.472,291.369,587.662,291.75,585.359,291.75
	 M585.359,269.556c-1.43,0-2.58,0.22-3.457,0.659c-0.875,0.44-1.558,1.09-2.043,1.952c-0.488,0.863-0.82,1.903-0.998,3.123
	c-0.18,1.22-0.269,2.61-0.269,4.171c0,1.562,0.089,2.954,0.269,4.173c0.178,1.219,0.512,2.26,0.998,3.122
	c0.486,0.863,1.168,1.513,2.043,1.951c0.877,0.439,2.028,0.66,3.457,0.66c1.459,0,2.652-0.213,3.577-0.636s1.647-1.057,2.166-1.903
	c0.519-0.845,0.876-1.877,1.07-3.098c0.194-1.22,0.292-2.643,0.292-4.27c0-1.593-0.09-3.001-0.268-4.22
	c-0.18-1.221-0.527-2.253-1.047-3.099c-0.52-0.846-1.24-1.487-2.166-1.927C588.06,269.775,586.851,269.556,585.359,269.556"/>
<path fill="#FFFFFF" d="M615.536,284.742c0,1.298-0.22,2.395-0.657,3.286c-0.438,0.892-1.047,1.606-1.824,2.141
	c-0.78,0.535-1.688,0.925-2.727,1.169c-1.039,0.243-2.142,0.364-3.311,0.364c-1.264,0-2.571-0.083-3.918-0.248
	c-1.346-0.166-2.409-0.414-3.188-0.746c-0.261-0.132-0.414-0.272-0.463-0.422s-0.057-0.306-0.023-0.472l0.146-0.643
	c0.031-0.293,0.228-0.438,0.584-0.438c0.519,0.065,1.111,0.13,1.777,0.194c0.665,0.065,1.321,0.123,1.971,0.17
	c0.649,0.05,1.257,0.099,1.825,0.146c0.568,0.049,1.014,0.073,1.338,0.073c1.914,0,3.334-0.308,4.259-0.923
	c0.925-0.614,1.388-1.699,1.388-3.254c0-0.842-0.072-1.537-0.22-2.088c-0.146-0.552-0.414-0.996-0.803-1.336
	c-0.39-0.34-0.925-0.615-1.606-0.827c-0.682-0.209-1.558-0.396-2.629-0.558c-1.168-0.194-2.238-0.412-3.212-0.655
	s-1.817-0.599-2.53-1.069c-0.715-0.469-1.274-1.084-1.68-1.845c-0.406-0.76-0.607-1.724-0.607-2.89c0-2.169,0.688-3.828,2.067-4.978
	c1.38-1.15,3.366-1.724,5.962-1.724c0.391,0,0.877,0.016,1.461,0.049c0.584,0.032,1.2,0.089,1.85,0.17
	c0.648,0.081,1.281,0.179,1.898,0.292c0.615,0.114,1.151,0.267,1.605,0.462c0.26,0.097,0.398,0.227,0.414,0.389
	c0.016,0.163,0.025,0.309,0.025,0.438l-0.195,0.877c-0.033,0.163-0.131,0.26-0.293,0.292c-0.162,0.033-0.357,0.033-0.584,0
	c-0.844-0.065-1.801-0.162-2.871-0.292c-1.071-0.129-2.19-0.195-3.358-0.195c-2.045,0-3.432,0.325-4.162,0.974
	c-0.729,0.649-1.095,1.703-1.095,3.163c0,0.779,0.105,1.396,0.316,1.85c0.211,0.455,0.535,0.82,0.974,1.095
	c0.438,0.276,1.005,0.487,1.703,0.633s1.534,0.3,2.507,0.462c1.104,0.195,2.143,0.414,3.115,0.658
	c0.974,0.243,1.809,0.608,2.507,1.094c0.698,0.487,1.248,1.144,1.655,1.973C615.332,282.381,615.535,283.445,615.536,284.742"/>
<rect x="327.98" y="250.682" fill="#004866" width="56.901" height="56.901"/>
<path fill="#FFFFFF" d="M354.659,281.872c-0.978,0.979-0.978,2.565,0,3.543s2.564,0.978,3.542,0c0.979-0.978,0.979-2.563,0-3.543
	C357.223,280.894,355.637,280.894,354.659,281.872 M351.581,278.795c-0.442,0.442-0.442,1.159,0,1.601
	c0.443,0.443,1.159,0.443,1.601,0c1.792-1.79,4.704-1.79,6.496,0c0.221,0.221,0.51,0.332,0.8,0.332s0.579-0.111,0.801-0.332
	c0.442-0.442,0.442-1.159,0-1.601C358.605,276.122,354.256,276.122,351.581,278.795 M349.534,277.88c0.289,0,0.579-0.111,0.8-0.332
	c3.362-3.362,8.832-3.36,12.192-0.001c0.442,0.444,1.159,0.444,1.601,0c0.442-0.442,0.442-1.158,0-1.601
	c-4.242-4.241-11.148-4.243-15.394,0c-0.443,0.442-0.443,1.159,0,1.601C348.954,277.769,349.243,277.88,349.534,277.88
	 M376.661,267.145h-40.462c-0.781,0-1.415,0.634-1.415,1.415v21.145c0,0.781,0.634,1.416,1.415,1.416h40.462
	c0.782,0,1.416-0.635,1.416-1.416V268.56C378.077,267.779,377.443,267.145,376.661,267.145 M375.246,288.29h-37.632v-18.315h37.632
	V288.29z"/>
<g>
</g>
<g>
</g>
<g>
</g>
<g>
</g>
<g>
</g>
<g>
</g>
<g>
</g>
<g>
</g>
<g>
</g>
<g>
</g>
<g>
</g>
<g>
</g>
<g>
</g>
<g>
</g>
<g>
</g>
</svg>
