<?xml version="1.0" encoding="utf-8"?>
<!-- Generator: Adobe Illustrator 16.0.0, SVG Export Plug-In . SVG Version: 6.00 Build 0)  -->
<!DOCTYPE svg PUBLIC "-//W3C//DTD SVG 1.1//EN" "http://www.w3.org/Graphics/SVG/1.1/DTD/svg11.dtd">
<svg version="1.1" id="Layer_1" xmlns="http://www.w3.org/2000/svg" xmlns:xlink="http://www.w3.org/1999/xlink" x="0px" y="0px"
	 width="303.77px" height="56.901px" viewBox="327.958 250.682 303.77 56.901"
	 enable-background="new 327.958 250.682 303.77 56.901" xml:space="preserve">
<g>
	<rect x="384.859" y="250.682" fill="#9ACA3C" width="246.869" height="56.901"/>
	<path fill="#FFFFFF" d="M411.38,267.169c0.421,0,0.94,0.017,1.559,0.049c0.616,0.033,1.249,0.089,1.897,0.17
		s1.281,0.187,1.898,0.316c0.616,0.131,1.168,0.293,1.654,0.487c0.261,0.098,0.397,0.228,0.414,0.39
		c0.016,0.162,0.024,0.308,0.024,0.438l-0.195,0.827c-0.031,0.163-0.13,0.26-0.292,0.292c-0.162,0.033-0.356,0.033-0.584,0
		c-0.422-0.032-0.899-0.08-1.436-0.146c-0.535-0.065-1.094-0.122-1.679-0.17c-0.585-0.049-1.16-0.089-1.729-0.122
		c-0.567-0.032-1.095-0.049-1.582-0.049c-1.265,0-2.311,0.156-3.139,0.464c-0.828,0.309-1.478,0.838-1.947,1.586
		c-0.47,0.748-0.796,1.74-0.973,2.976c-0.18,1.237-0.269,2.781-0.269,4.636c0,1.92,0.098,3.522,0.292,4.807
		c0.195,1.285,0.527,2.311,0.998,3.074c0.47,0.765,1.111,1.31,1.923,1.635c0.811,0.326,1.851,0.488,3.115,0.488
		c0.323,0,0.762-0.018,1.314-0.049c0.551-0.033,1.144-0.074,1.776-0.123c0.634-0.049,1.267-0.098,1.897-0.146
		c0.633-0.048,1.209-0.104,1.729-0.17c0.391,0,0.601,0.146,0.633,0.438l0.146,0.62c0.032,0.159,0.017,0.313-0.049,0.453
		c-0.065,0.144-0.226,0.279-0.486,0.406c-0.778,0.317-1.816,0.557-3.114,0.715c-1.299,0.159-2.564,0.239-3.797,0.239
		c-2.013,0-3.627-0.309-4.844-0.926c-1.217-0.615-2.148-1.477-2.799-2.58c-0.649-1.104-1.079-2.408-1.289-3.918
		c-0.212-1.508-0.317-3.154-0.317-4.94c0-1.589,0.105-3.122,0.316-4.599s0.641-2.775,1.29-3.895c0.648-1.12,1.582-2.012,2.799-2.677
		C407.751,267.5,409.367,267.169,411.38,267.169"/>
	<path fill="#FFFFFF" d="M431.531,291.749c-2.238,0-3.99-0.373-5.257-1.118c-1.266-0.746-2.216-1.729-2.849-2.945
		c-0.632-1.217-1.021-2.57-1.168-4.063c-0.146-1.492-0.22-3.001-0.22-4.526c0-1.232,0.09-2.548,0.268-3.943
		c0.179-1.395,0.602-2.685,1.267-3.869c0.665-1.184,1.622-2.166,2.872-2.945c1.249-0.779,2.943-1.168,5.086-1.168
		c2.175,0,3.91,0.333,5.208,0.998c1.299,0.665,2.288,1.557,2.971,2.677c0.68,1.12,1.127,2.394,1.338,3.821s0.315,2.904,0.315,4.43
		c0,1.492-0.081,2.993-0.243,4.5c-0.162,1.512-0.567,2.865-1.217,4.065c-0.648,1.2-1.63,2.183-2.943,2.944
		C435.644,291.368,433.836,291.749,431.531,291.749 M431.53,269.554c-1.429,0-2.579,0.22-3.456,0.659
		c-0.876,0.439-1.558,1.09-2.044,1.952c-0.485,0.862-0.818,1.903-0.998,3.123s-0.269,2.61-0.269,4.171
		c0,1.563,0.089,2.953,0.269,4.174c0.18,1.219,0.513,2.26,0.999,3.121c0.485,0.863,1.168,1.514,2.044,1.952s2.026,0.659,3.456,0.659
		c1.46,0,2.651-0.213,3.577-0.635c0.925-0.424,1.646-1.058,2.166-1.903c0.52-0.845,0.876-1.878,1.069-3.099
		c0.194-1.22,0.292-2.644,0.292-4.271c0-1.593-0.089-3.001-0.268-4.22c-0.179-1.221-0.526-2.254-1.047-3.1s-1.24-1.486-2.166-1.927
		C434.231,269.774,433.022,269.554,431.53,269.554"/>
	<path fill="#FFFFFF" d="M461.587,273.059c-0.113-0.875-0.325-1.574-0.633-2.093c-0.309-0.519-0.755-0.884-1.339-1.095
		s-1.347-0.317-2.288-0.317c-0.649,0-1.403,0.122-2.262,0.365c-0.861,0.244-1.713,0.536-2.557,0.876
		c-0.845,0.342-1.613,0.682-2.313,1.023c-0.698,0.341-1.226,0.607-1.582,0.803v18.009c0,0.487-0.228,0.729-0.682,0.729h-1.266
		c-0.261,0-0.431-0.049-0.512-0.146c-0.081-0.096-0.121-0.292-0.121-0.584l-0.001-22.244c0-0.292,0.04-0.487,0.122-0.584
		c0.08-0.098,0.251-0.146,0.511-0.146h1.267c0.26,0,0.438,0.041,0.534,0.122c0.099,0.081,0.146,0.284,0.146,0.608l0.007,2.141
		c0.325-0.226,0.806-0.526,1.439-0.9c0.635-0.372,1.365-0.737,2.194-1.095c0.83-0.356,1.718-0.673,2.66-0.949
		c0.943-0.275,1.888-0.414,2.831-0.414c1.496,0,2.685,0.203,3.563,0.609c0.879,0.406,1.554,0.99,2.024,1.752
		c0.473,0.763,0.78,1.679,0.928,2.75c0.146,1.071,0.22,2.272,0.22,3.602v14.748c0,0.487-0.247,0.729-0.742,0.729h-1.339
		c-0.266,0-0.438-0.049-0.521-0.146c-0.082-0.097-0.123-0.292-0.123-0.584l-0.001-14.213
		C461.757,275.055,461.7,273.936,461.587,273.059"/>
	<path fill="#FFFFFF" d="M478.694,267.17c2.045,0,3.69,0.309,4.939,0.925c1.249,0.617,2.23,1.42,2.946,2.409
		c0.713,0.99,1.19,2.126,1.435,3.407c0.243,1.282,0.366,2.589,0.366,3.919c0,0.746-0.14,1.331-0.415,1.752
		c-0.275,0.422-0.802,0.633-1.582,0.633h-14.456c0.065,1.623,0.188,3.01,0.367,4.161c0.177,1.153,0.502,2.086,0.972,2.799
		c0.472,0.714,1.137,1.233,1.996,1.558c0.86,0.326,2.003,0.488,3.433,0.488c0.485,0,1.069-0.024,1.752-0.074
		c0.683-0.049,1.379-0.112,2.094-0.194c0.714-0.08,1.402-0.153,2.068-0.22c0.664-0.063,1.208-0.112,1.63-0.146
		c0.324-0.032,0.535,0.097,0.634,0.39l0.146,0.778c0.098,0.356-0.082,0.634-0.535,0.827c-0.39,0.13-0.908,0.268-1.559,0.414
		c-0.648,0.146-1.347,0.275-2.092,0.391c-0.746,0.111-1.501,0.201-2.264,0.267c-0.764,0.065-1.452,0.098-2.068,0.098
		c-2.175,0-3.887-0.34-5.136-1.022c-1.248-0.681-2.19-1.588-2.822-2.725c-0.633-1.136-1.031-2.459-1.193-3.968
		c-0.163-1.511-0.243-3.074-0.243-4.697c0-1.395,0.08-2.815,0.243-4.259c0.162-1.443,0.562-2.75,1.193-3.918
		s1.589-2.125,2.871-2.871C474.695,267.544,476.457,267.17,478.694,267.17 M478.694,269.555c-1.491,0-2.669,0.188-3.527,0.564
		c-0.861,0.375-1.526,0.921-1.996,1.64c-0.472,0.718-0.779,1.599-0.925,2.644c-0.146,1.045-0.252,2.236-0.317,3.574h13.629
		c-0.032-1.013-0.113-2.024-0.242-3.035c-0.131-1.012-0.432-1.918-0.899-2.719c-0.472-0.799-1.153-1.442-2.046-1.933
		C481.477,269.8,480.253,269.555,478.694,269.555"/>
	<path fill="#FFFFFF" d="M501.766,267.17c0.421,0,0.94,0.017,1.56,0.049c0.615,0.033,1.249,0.089,1.896,0.17
		c0.648,0.081,1.281,0.187,1.898,0.316c0.616,0.131,1.168,0.293,1.655,0.487c0.26,0.098,0.396,0.228,0.413,0.39
		c0.016,0.162,0.023,0.308,0.023,0.438l-0.195,0.827c-0.03,0.163-0.13,0.26-0.292,0.292c-0.161,0.033-0.355,0.033-0.584,0
		c-0.422-0.032-0.898-0.08-1.436-0.146c-0.535-0.065-1.094-0.122-1.679-0.17c-0.584-0.049-1.16-0.089-1.729-0.122
		c-0.567-0.032-1.095-0.049-1.582-0.049c-1.265,0-2.311,0.156-3.139,0.464c-0.828,0.309-1.479,0.838-1.947,1.586
		s-0.796,1.739-0.973,2.976c-0.181,1.237-0.27,2.781-0.27,4.637c0,1.918,0.099,3.521,0.292,4.806
		c0.195,1.284,0.527,2.31,0.998,3.073c0.471,0.766,1.111,1.311,1.923,1.636s1.852,0.487,3.115,0.487
		c0.323,0,0.763-0.017,1.314-0.049c0.551-0.031,1.144-0.072,1.775-0.121s1.268-0.099,1.897-0.146
		c0.633-0.048,1.209-0.105,1.729-0.17c0.392,0,0.602,0.146,0.635,0.438l0.145,0.621c0.032,0.159,0.018,0.313-0.049,0.453
		c-0.065,0.143-0.228,0.279-0.486,0.406c-0.777,0.318-1.815,0.557-3.115,0.715c-1.298,0.159-2.563,0.239-3.796,0.239
		c-2.013,0-3.627-0.31-4.844-0.925c-1.217-0.616-2.149-1.478-2.799-2.58c-0.65-1.104-1.079-2.409-1.289-3.918
		c-0.212-1.51-0.317-3.155-0.317-4.941c0-1.589,0.105-3.122,0.316-4.6c0.211-1.475,0.641-2.774,1.29-3.894
		c0.649-1.12,1.582-2.012,2.799-2.677S499.753,267.17,501.766,267.17"/>
	<path fill="#FFFFFF" d="M525.032,290.291c0.031,0.193,0.017,0.34-0.049,0.438c-0.064,0.099-0.163,0.181-0.292,0.244
		c-0.228,0.098-0.536,0.193-0.926,0.293c-0.389,0.096-0.812,0.187-1.265,0.266c-0.455,0.082-0.926,0.14-1.412,0.173
		c-0.487,0.03-0.941,0.047-1.363,0.047c-1.826,0-3.063-0.414-3.707-1.24c-0.645-0.827-0.966-2.02-0.966-3.577v-17.084h-2.822
		c-0.39,0-0.585-0.179-0.585-0.536v-1.071c0-0.389,0.195-0.584,0.585-0.584h2.87v-5.403c0-0.357,0.184-0.584,0.547-0.681
		l1.438-0.438c0.297-0.097,0.486-0.097,0.569,0c0.082,0.097,0.124,0.276,0.124,0.535v5.987l5.354,0.001
		c0.259,0,0.414,0.041,0.462,0.121c0.049,0.082,0.074,0.219,0.074,0.414v1.119c0,0.195-0.025,0.333-0.074,0.414
		c-0.048,0.082-0.203,0.122-0.462,0.122h-5.354v16.256c0,0.553,0.031,1.021,0.099,1.412c0.063,0.389,0.211,0.713,0.438,0.975
		c0.229,0.258,0.561,0.453,0.997,0.584c0.439,0.129,1.015,0.193,1.729,0.193c0.161,0,0.382-0.008,0.656-0.023
		s0.566-0.033,0.877-0.049c0.309-0.016,0.601-0.031,0.876-0.049c0.274-0.017,0.512-0.041,0.705-0.072
		c0.261-0.033,0.431-0.018,0.513,0.049c0.08,0.064,0.152,0.193,0.219,0.389L525.032,290.291z"/>
	<path fill="#FFFFFF" d="M543.625,288.587c-0.715,0.422-1.429,0.82-2.141,1.192c-0.716,0.373-1.479,0.705-2.289,0.998
		c-0.813,0.291-1.671,0.527-2.58,0.705c-0.908,0.179-1.897,0.268-2.968,0.268c-2.207,0-3.799-0.544-4.771-1.635
		c-0.974-1.092-1.461-2.711-1.461-4.86c0-2.767,0.689-4.802,2.069-6.104c1.378-1.301,3.593-1.953,6.643-1.953h7.545v-2.178
		c0-0.966-0.09-1.787-0.268-2.465c-0.179-0.677-0.503-1.234-0.975-1.669c-0.471-0.435-1.111-0.757-1.923-0.967
		s-1.833-0.315-3.064-0.315c-1.04,0-2.191,0.049-3.457,0.146c-1.265,0.098-2.466,0.211-3.603,0.341
		c-0.455,0.033-0.697-0.081-0.729-0.341l-0.194-0.876c0-0.324,0.179-0.567,0.535-0.73c0.521-0.195,1.12-0.357,1.802-0.487
		c0.682-0.129,1.378-0.235,2.094-0.316c0.713-0.081,1.402-0.138,2.067-0.171c0.665-0.031,1.257-0.048,1.777-0.048
		c1.815,0,3.286,0.17,4.404,0.511c1.118,0.341,1.994,0.86,2.628,1.557c0.634,0.699,1.063,1.576,1.29,2.628
		c0.227,1.056,0.342,2.281,0.342,3.676l0.001,11.973c0,0.455,0.03,0.803,0.096,1.047c0.064,0.243,0.171,0.43,0.316,0.561
		c0.146,0.131,0.349,0.219,0.607,0.268c0.261,0.051,0.602,0.092,1.023,0.122c0.354,0,0.534,0.146,0.534,0.438v0.974
		c0,0.163-0.05,0.292-0.146,0.39c-0.098,0.098-0.292,0.178-0.585,0.243c-1.59,0.162-2.726,0.05-3.406-0.341
		c-0.682-0.389-1.07-1.248-1.169-2.579h-0.046V288.587z M543.673,279.582h-7.885c-0.844,0-1.606,0.082-2.288,0.244
		c-0.681,0.162-1.265,0.453-1.752,0.876c-0.487,0.422-0.859,0.989-1.12,1.702c-0.26,0.716-0.389,1.623-0.389,2.727
		c0,1.623,0.316,2.727,0.949,3.311s1.775,0.875,3.432,0.875c0.713,0,1.509-0.111,2.385-0.34c0.876-0.228,1.735-0.502,2.58-0.828
		c0.843-0.322,1.622-0.655,2.336-0.998c0.714-0.34,1.298-0.639,1.752-0.899V279.582L543.673,279.582z"/>
	<path fill="#FFFFFF" d="M568.35,258.066c0-0.323,0.059-0.533,0.175-0.63c0.113-0.097,0.305-0.146,0.568-0.146h1.289
		c0.429,0,0.646,0.26,0.646,0.779l0.001,32.563c0,0.291-0.042,0.485-0.124,0.584c-0.083,0.097-0.258,0.146-0.521,0.146h-1.289
		c-0.265,0-0.455-0.049-0.568-0.146c-0.116-0.099-0.174-0.293-0.174-0.584v-2.239c-0.323,0.194-0.804,0.485-1.437,0.875
		s-1.354,0.764-2.166,1.118c-0.812,0.358-1.688,0.675-2.628,0.951c-0.942,0.274-1.867,0.412-2.775,0.412
		c-1.429,0-2.621-0.242-3.576-0.729c-0.959-0.486-1.722-1.224-2.287-2.213c-0.569-0.99-0.967-2.231-1.193-3.726
		c-0.229-1.492-0.341-3.228-0.341-5.208c0-2.076,0.129-3.902,0.389-5.477s0.731-2.896,1.412-3.967
		c0.681-1.07,1.605-1.881,2.774-2.433c1.169-0.552,2.66-0.828,4.478-0.828c0.975,0,2.061,0.104,3.261,0.31
		c1.2,0.207,2.531,0.629,3.991,1.266l0.1-0.049L568.35,258.066z M568.301,270.824c-1.46-0.455-2.799-0.781-4.016-0.976
		c-1.216-0.195-2.394-0.293-3.528-0.293c-1.201,0-2.188,0.18-2.97,0.537c-0.778,0.357-1.386,0.943-1.825,1.756
		c-0.437,0.814-0.746,1.887-0.925,3.221c-0.178,1.334-0.267,2.978-0.267,4.929c0,1.92,0.08,3.481,0.242,4.685
		c0.162,1.205,0.432,2.156,0.805,2.854c0.373,0.7,0.876,1.18,1.508,1.438c0.633,0.262,1.42,0.393,2.361,0.393
		c0.647,0,1.395-0.122,2.237-0.366c0.845-0.244,1.682-0.528,2.507-0.854c0.828-0.326,1.592-0.666,2.288-1.024
		c0.697-0.356,1.227-0.634,1.582-0.829V270.824z"/>
	<path fill="#FFFFFF" d="M585.337,291.75c-2.237,0-3.991-0.373-5.257-1.118c-1.265-0.746-2.214-1.728-2.847-2.944
		s-1.022-2.571-1.168-4.063c-0.147-1.492-0.221-3.001-0.221-4.526c0-1.232,0.09-2.548,0.269-3.943
		c0.178-1.395,0.6-2.684,1.266-3.869c0.664-1.184,1.622-2.166,2.871-2.945c1.249-0.779,2.945-1.168,5.087-1.168
		c2.173,0,3.909,0.333,5.208,0.998c1.297,0.665,2.287,1.557,2.969,2.678c0.683,1.119,1.128,2.394,1.34,3.82
		c0.21,1.428,0.315,2.905,0.315,4.43c0,1.492-0.082,2.993-0.243,4.502c-0.162,1.51-0.566,2.864-1.217,4.063
		c-0.648,1.2-1.631,2.185-2.943,2.944C589.45,291.369,587.642,291.75,585.337,291.75 M585.337,269.556
		c-1.429,0-2.58,0.22-3.456,0.659c-0.876,0.439-1.558,1.09-2.044,1.952s-0.819,1.903-0.998,3.123s-0.268,2.61-0.268,4.171
		c0,1.563,0.089,2.954,0.268,4.173c0.18,1.22,0.513,2.261,0.998,3.122c0.487,0.863,1.168,1.514,2.044,1.951
		c0.877,0.439,2.028,0.66,3.456,0.66c1.46,0,2.653-0.213,3.578-0.637c0.925-0.422,1.646-1.057,2.166-1.902s0.876-1.877,1.07-3.098
		c0.193-1.221,0.292-2.644,0.292-4.271c0-1.593-0.089-3.001-0.27-4.22c-0.179-1.221-0.525-2.254-1.046-3.1
		c-0.52-0.846-1.24-1.486-2.166-1.927C588.038,269.775,586.829,269.556,585.337,269.556"/>
	<path fill="#FFFFFF" d="M615.515,284.742c0,1.298-0.22,2.395-0.656,3.285c-0.438,0.893-1.047,1.606-1.824,2.142
		c-0.78,0.535-1.688,0.925-2.728,1.169c-1.038,0.243-2.142,0.364-3.311,0.364c-1.264,0-2.571-0.083-3.918-0.248
		c-1.346-0.166-2.409-0.414-3.188-0.746c-0.261-0.132-0.414-0.272-0.463-0.422s-0.057-0.306-0.022-0.472l0.146-0.644
		c0.031-0.293,0.229-0.438,0.584-0.438c0.521,0.065,1.111,0.131,1.777,0.195c0.665,0.064,1.321,0.122,1.971,0.17
		c0.649,0.049,1.257,0.099,1.825,0.146c0.568,0.049,1.014,0.073,1.338,0.073c1.914,0,3.334-0.309,4.259-0.924
		c0.926-0.613,1.389-1.699,1.389-3.254c0-0.842-0.072-1.537-0.221-2.088c-0.145-0.552-0.414-0.996-0.803-1.336
		s-0.925-0.615-1.605-0.826c-0.683-0.209-1.559-0.396-2.63-0.559c-1.168-0.193-2.236-0.412-3.212-0.655
		c-0.974-0.243-1.815-0.599-2.529-1.069c-0.716-0.469-1.274-1.084-1.681-1.844c-0.405-0.761-0.606-1.725-0.606-2.891
		c0-2.169,0.688-3.828,2.066-4.978s3.366-1.724,5.962-1.724c0.392,0,0.878,0.016,1.462,0.049c0.584,0.032,1.199,0.089,1.85,0.17
		c0.647,0.081,1.282,0.179,1.897,0.292c0.615,0.114,1.151,0.267,1.605,0.462c0.26,0.097,0.397,0.227,0.414,0.389
		c0.016,0.163,0.024,0.309,0.024,0.438l-0.194,0.877c-0.033,0.163-0.13,0.26-0.292,0.292c-0.163,0.033-0.358,0.033-0.584,0
		c-0.845-0.065-1.802-0.162-2.872-0.292c-1.071-0.129-2.19-0.195-3.358-0.195c-2.045,0-3.432,0.325-4.162,0.974
		c-0.729,0.648-1.095,1.703-1.095,3.163c0,0.778,0.105,1.396,0.317,1.851c0.21,0.455,0.534,0.819,0.973,1.094
		c0.438,0.277,1.005,0.488,1.703,0.634s1.534,0.3,2.507,0.462c1.104,0.195,2.144,0.414,3.115,0.658
		c0.974,0.242,1.809,0.607,2.507,1.094s1.248,1.145,1.655,1.973C615.311,282.381,615.514,283.445,615.515,284.742"/>
	<rect x="327.958" y="250.682" fill="#FFFFFF" width="56.901" height="56.901"/>
	<path fill="#004866" d="M354.637,281.872c-0.978,0.979-0.978,2.565,0,3.543c0.979,0.978,2.565,0.978,3.543,0
		c0.979-0.978,0.979-2.563,0-3.543C357.202,280.895,355.616,280.895,354.637,281.872 M351.561,278.795
		c-0.442,0.441-0.442,1.159,0,1.602s1.158,0.442,1.601,0c1.791-1.791,4.704-1.791,6.495,0c0.221,0.221,0.511,0.332,0.801,0.332
		s0.579-0.111,0.8-0.332c0.443-0.442,0.443-1.16,0-1.602C358.583,276.122,354.234,276.122,351.561,278.795 M349.512,277.88
		c0.29,0,0.579-0.11,0.801-0.332c3.361-3.362,8.832-3.36,12.192-0.001c0.442,0.444,1.158,0.444,1.601,0
		c0.442-0.441,0.442-1.158,0-1.602c-4.241-4.24-11.147-4.242-15.394,0c-0.442,0.443-0.442,1.16-0.001,1.602
		C348.932,277.77,349.222,277.88,349.512,277.88 M376.64,267.145h-40.462c-0.781,0-1.415,0.634-1.415,1.415v21.145
		c0,0.781,0.634,1.416,1.415,1.416h40.462c0.781,0,1.415-0.635,1.415-1.416V268.56C378.055,267.779,377.421,267.145,376.64,267.145
		 M375.225,288.29h-37.632v-18.315h37.632V288.29z"/>
</g>
</svg>
