<?xml version="1.0" encoding="utf-8"?>
<!-- Generator: Adobe Illustrator 16.0.0, SVG Export Plug-In . SVG Version: 6.00 Build 0)  -->
<!DOCTYPE svg PUBLIC "-//W3C//DTD SVG 1.1//EN" "http://www.w3.org/Graphics/SVG/1.1/DTD/svg11.dtd">
<svg version="1.1" id="Layer_1" xmlns="http://www.w3.org/2000/svg" xmlns:xlink="http://www.w3.org/1999/xlink" x="0px" y="0px"
	 width="960px" height="560px" viewBox="0 0 960 560" enable-background="new 0 0 960 560" xml:space="preserve">
<polygon fill="#FFFFFF" points="480.5,205.119 216.183,205.12 216.183,290.883 744.817,290.883 744.817,205.119 "/>
<g>
	<defs>
		<rect id="SVGID_1_" x="216.182" y="205.119" width="528.637" height="149.597"/>
	</defs>
	<clipPath id="SVGID_2_">
		<use xlink:href="#SVGID_1_"  overflow="visible"/>
	</clipPath>
	<path clip-path="url(#SVGID_2_)" fill="#004866" d="M242.114,268.46c-0.615,0-1.026-0.117-1.239-0.354
		c-0.213-0.236-0.318-0.566-0.318-0.99l-0.002-44.219c0-0.895,0.448-1.344,1.345-1.344h14.362c3.914,0,7.146,0.625,9.692,1.874
		c2.548,1.25,4.564,2.937,6.049,5.059c1.485,2.123,2.523,4.599,3.114,7.43c0.589,2.829,0.884,5.825,0.884,8.984
		c0,3.208-0.283,6.238-0.849,9.092c-0.566,2.854-1.58,5.353-3.042,7.499c-1.462,2.147-3.479,3.845-6.049,5.094
		c-2.571,1.25-5.837,1.875-9.798,1.875H242.114z M267.653,245.433c0-3.308-0.295-6.062-0.885-8.26
		c-0.591-2.198-1.405-3.935-2.441-5.211c-1.039-1.276-2.276-2.175-3.714-2.694c-1.44-0.52-3.007-0.781-4.705-0.781h-7.358
		l0.001,33.04h6.862c1.604,0,3.136-0.211,4.599-0.638c1.463-0.424,2.761-1.227,3.893-2.409c1.131-1.182,2.039-2.824,2.723-4.928
		C267.311,251.447,267.653,248.741,267.653,245.433"/>
	<path clip-path="url(#SVGID_2_)" fill="#004866" d="M312.722,268.461h-5.024c-0.519,0-0.873-0.117-1.06-0.354
		c-0.19-0.235-0.284-0.566-0.284-0.99v-2.194l-0.143-0.071c-0.707,0.473-1.521,0.956-2.44,1.452
		c-0.919,0.494-1.898,0.954-2.937,1.379c-1.037,0.424-2.11,0.768-3.218,1.026c-1.108,0.258-2.206,0.389-3.29,0.389
		c-2.406,0-4.305-0.33-5.695-0.991c-1.392-0.66-2.44-1.579-3.148-2.759c-0.708-1.178-1.157-2.57-1.344-4.174
		c-0.189-1.604-0.283-3.326-0.283-5.165l-0.001-20.8c0-0.944,0.452-1.416,1.355-1.416h5.212c0.856,0,1.285,0.472,1.285,1.416v19.88
		c0,1.086,0.07,2.052,0.213,2.901c0.14,0.849,0.397,1.569,0.773,2.158c0.376,0.59,0.893,1.05,1.55,1.379
		c0.657,0.332,1.525,0.496,2.605,0.496c0.751,0,1.584-0.118,2.5-0.354c0.915-0.236,1.818-0.531,2.711-0.885
		c0.891-0.353,1.711-0.707,2.464-1.061c0.75-0.353,1.36-0.647,1.83-0.884l-0.001-23.63c0-0.426,0.094-0.766,0.283-1.027
		c0.188-0.259,0.542-0.389,1.061-0.389h5.024c0.895,0,1.343,0.472,1.343,1.416l0.002,31.908
		C314.065,268.014,313.616,268.461,312.722,268.461"/>
	<path clip-path="url(#SVGID_2_)" fill="#004866" d="M330.762,267.117c0,0.897-0.452,1.344-1.356,1.344h-5.141
		c-0.903,0-1.355-0.447-1.355-1.344l-0.002-31.908c0-0.943,0.452-1.416,1.356-1.416h5.067c0.952,0,1.43,0.473,1.43,1.416v3.113
		l0.141,0.141c0.521-0.47,1.204-0.978,2.053-1.521c0.849-0.542,1.757-1.037,2.725-1.486c0.965-0.448,1.944-0.86,2.934-1.237
		c0.991-0.377,1.911-0.637,2.76-0.779c0.473-0.094,0.85-0.071,1.132,0.07c0.283,0.142,0.472,0.521,0.567,1.133l0.495,4.74
		c0.047,0.519,0.023,0.896-0.071,1.131c-0.095,0.238-0.519,0.426-1.272,0.567c-0.991,0.189-2.029,0.413-3.113,0.672
		c-1.086,0.26-2.146,0.543-3.184,0.849c-1.038,0.307-2.006,0.601-2.9,0.884c-0.896,0.283-1.653,0.567-2.265,0.849L330.762,267.117z"
		/>
	<path clip-path="url(#SVGID_2_)" fill="#004866" d="M369.248,264.43c-1.792,1.368-3.809,2.476-6.049,3.325s-4.563,1.273-6.97,1.273
		c-1.886,0-3.454-0.248-4.704-0.742c-1.25-0.496-2.24-1.179-2.972-2.052s-1.25-1.921-1.555-3.149
		c-0.308-1.226-0.461-2.594-0.461-4.104c-0.047-4.15,1.037-7.156,3.254-9.02c2.216-1.862,5.565-2.794,10.046-2.794h9.056v-1.858
		c0-1.047-0.105-1.939-0.317-2.677c-0.212-0.737-0.603-1.344-1.167-1.821c-0.567-0.475-1.322-0.809-2.265-0.999
		c-0.944-0.19-2.146-0.286-3.608-0.286c-0.566,0-1.263,0.023-2.086,0.07c-0.827,0.047-1.675,0.096-2.548,0.142
		c-0.873,0.047-1.745,0.118-2.618,0.212c-0.873,0.095-1.662,0.166-2.37,0.213c-0.707,0.095-1.191,0.105-1.45,0.035
		c-0.259-0.072-0.437-0.366-0.531-0.883l-0.636-2.589c-0.095-0.466-0.048-0.851,0.141-1.154c0.188-0.302,0.684-0.617,1.485-0.945
		c0.754-0.279,1.651-0.512,2.688-0.7c1.037-0.186,2.099-0.338,3.185-0.455c1.084-0.116,2.157-0.209,3.219-0.279
		c1.062-0.07,2.017-0.106,2.865-0.106c3.065,0,5.506,0.308,7.323,0.92c1.814,0.613,3.195,1.474,4.139,2.583
		c0.943,1.109,1.557,2.464,1.84,4.068s0.424,3.395,0.424,5.376l0.002,13.656c0,0.707,0.034,1.261,0.106,1.662
		c0.07,0.401,0.187,0.707,0.353,0.92c0.166,0.212,0.412,0.365,0.743,0.459c0.329,0.095,0.778,0.166,1.345,0.213
		c0.518,0.047,0.871,0.141,1.061,0.283c0.188,0.141,0.283,0.401,0.283,0.778v2.972c0,0.802-0.566,1.297-1.698,1.485
		c-0.565,0.094-1.132,0.177-1.698,0.248c-0.565,0.07-1.108,0.106-1.627,0.106c-1.651,0-2.983-0.307-3.997-0.92
		c-1.016-0.612-1.711-1.744-2.087-3.396L369.248,264.43z M368.824,252.685h-8.633c-1.793,0-3.207,0.413-4.244,1.238
		c-1.038,0.826-1.557,2.395-1.556,4.705c0,1.556,0.318,2.63,0.955,3.219c0.638,0.591,1.779,0.884,3.432,0.884
		c0.754,0,1.579-0.094,2.476-0.283c0.896-0.188,1.792-0.447,2.688-0.778c0.896-0.329,1.771-0.695,2.618-1.096
		c0.851-0.401,1.604-0.79,2.266-1.168L368.824,252.685z"/>
	<path clip-path="url(#SVGID_2_)" fill="#004866" d="M407.17,265.773c0.142,0.803-0.166,1.393-0.92,1.769
		c-0.614,0.283-1.332,0.52-2.157,0.707c-0.825,0.189-1.675,0.342-2.548,0.461c-0.873,0.116-1.698,0.199-2.475,0.247
		c-0.78,0.046-1.452,0.071-2.018,0.071c-2.076,0-3.691-0.295-4.847-0.885c-1.156-0.589-2.016-1.403-2.582-2.44
		c-0.565-1.038-0.92-2.24-1.062-3.609c-0.142-1.368-0.211-2.806-0.213-4.315V240.02h-3.537c-0.52,0-0.873-0.105-1.062-0.318
		c-0.188-0.213-0.283-0.554-0.283-1.026v-3.467c0-0.471,0.094-0.824,0.282-1.062c0.188-0.235,0.542-0.353,1.062-0.353h3.608v-7.287
		c0-0.519,0.129-0.884,0.389-1.097c0.26-0.211,0.577-0.364,0.955-0.459l4.741-1.274c0.943-0.235,1.414,0.048,1.414,0.849v9.268h7.57
		c0.567,0,0.932,0.118,1.097,0.353c0.165,0.238,0.248,0.567,0.248,0.991v3.538c0,0.472-0.083,0.813-0.247,1.026
		c-0.166,0.213-0.53,0.318-1.097,0.318h-7.571v17.617c0.001,0.944,0.073,1.675,0.214,2.193c0.142,0.519,0.39,0.909,0.743,1.168
		c0.354,0.26,0.837,0.413,1.45,0.459c0.613,0.048,1.391,0.071,2.335,0.071c0.519,0,1.261-0.023,2.228-0.071
		c0.967-0.046,1.806-0.117,2.513-0.212c0.377-0.046,0.66,0,0.849,0.142c0.188,0.141,0.33,0.424,0.425,0.848L407.17,265.773z"/>
	<path clip-path="url(#SVGID_2_)" fill="#004866" d="M418.418,253.251c0.046,1.793,0.247,3.279,0.602,4.456
		c0.354,1.18,0.885,2.112,1.592,2.796s1.58,1.167,2.617,1.45c1.038,0.283,2.288,0.424,3.75,0.424c1.274,0,2.782-0.094,4.528-0.282
		c1.745-0.188,3.301-0.355,4.67-0.495c0.66-0.095,1.119-0.083,1.379,0.034c0.259,0.119,0.437,0.508,0.531,1.168l0.425,2.335
		c0.094,0.519,0.081,0.944-0.036,1.273c-0.118,0.331-0.507,0.637-1.168,0.92c-0.707,0.283-1.532,0.531-2.476,0.743
		c-0.944,0.212-1.936,0.39-2.971,0.53c-1.038,0.142-2.076,0.259-3.112,0.354c-1.039,0.095-1.981,0.141-2.831,0.141
		c-3.396,0-6.109-0.495-8.136-1.485c-2.029-0.991-3.585-2.311-4.671-3.963c-1.084-1.65-1.803-3.548-2.157-5.695
		c-0.355-2.145-0.531-4.375-0.531-6.686c0-1.698,0.142-3.609,0.424-5.731c0.284-2.122,0.931-4.103,1.946-5.943
		c1.014-1.839,2.523-3.384,4.527-4.634c2.005-1.248,4.728-1.874,8.172-1.874c3.16,0,5.719,0.471,7.676,1.415
		c1.958,0.945,3.479,2.158,4.564,3.644c1.084,1.485,1.827,3.183,2.229,5.094c0.4,1.91,0.625,3.809,0.672,5.695
		c0.047,1.274-0.166,2.311-0.637,3.113c-0.471,0.803-1.415,1.203-2.829,1.203H418.418z M425.493,239.525
		c-1.321,0-2.405,0.189-3.255,0.562c-0.849,0.373-1.545,0.923-2.088,1.648c-0.541,0.725-0.932,1.613-1.168,2.666
		c-0.235,1.052-0.399,2.235-0.494,3.543h14.009c0-1.075-0.095-2.116-0.283-3.121c-0.188-1.007-0.531-1.906-1.026-2.702
		c-0.496-0.795-1.203-1.425-2.121-1.893C428.146,239.759,426.955,239.525,425.493,239.525"/>
	<path clip-path="url(#SVGID_2_)" fill="#004866" d="M464.192,250.775l11.25,16.201c0.235,0.379,0.282,0.72,0.142,1.027
		c-0.142,0.307-0.449,0.46-0.921,0.46h-6.014c-0.471,0-0.837-0.083-1.096-0.248c-0.261-0.165-0.509-0.435-0.743-0.813l-7.075-11.037
		l-7.074,11.037c-0.425,0.707-1.063,1.061-1.911,1.061h-5.942c-0.472,0-0.768-0.141-0.885-0.425
		c-0.117-0.282-0.06-0.636,0.178-1.062l11.248-16.201l-10.613-15.566c-0.237-0.328-0.295-0.647-0.177-0.954
		c0.117-0.306,0.412-0.461,0.885-0.461h6.013c0.52,0,0.86,0.084,1.026,0.248c0.165,0.166,0.389,0.437,0.672,0.814l6.651,10.259
		l6.58-10.259c0.234-0.377,0.448-0.648,0.636-0.814c0.188-0.164,0.496-0.248,0.919-0.248h6.298c0.566,0,0.896,0.143,0.99,0.426
		c0.094,0.282,0.023,0.613-0.213,0.989L464.192,250.775z"/>
	<path clip-path="url(#SVGID_2_)" fill="#004866" d="M511.381,233.3c2.973,0,5.365,0.449,7.182,1.344
		c1.815,0.897,3.243,2.064,4.281,3.502c1.037,1.439,1.732,3.09,2.088,4.953c0.353,1.863,0.529,3.762,0.529,5.695
		c0,1.086-0.201,1.934-0.602,2.548c-0.4,0.613-1.167,0.919-2.299,0.919h-21.013c0.095,2.359,0.271,4.375,0.531,6.049
		c0.258,1.675,0.731,3.031,1.415,4.069c0.684,1.037,1.651,1.793,2.901,2.263c1.248,0.473,2.911,0.707,4.987,0.707
		c0.707,0,1.557-0.035,2.548-0.105c0.989-0.071,2.004-0.165,3.042-0.284c1.037-0.116,2.039-0.223,3.007-0.318
		c0.966-0.094,1.757-0.165,2.37-0.211c0.471-0.047,0.777,0.14,0.92,0.565l0.212,1.132c0.141,0.519-0.119,0.92-0.779,1.203
		c-0.565,0.189-1.319,0.389-2.263,0.601c-0.944,0.213-1.958,0.402-3.043,0.567c-1.085,0.164-2.183,0.293-3.29,0.388
		c-1.109,0.095-2.111,0.141-3.007,0.141c-3.16,0-5.648-0.495-7.463-1.485c-1.817-0.991-3.185-2.31-4.104-3.962
		c-0.92-1.65-1.499-3.572-1.735-5.766c-0.236-2.193-0.354-4.469-0.354-6.827c0-2.028,0.117-4.091,0.354-6.191
		c0.235-2.098,0.814-3.998,1.734-5.696c0.919-1.697,2.31-3.089,4.173-4.174C505.568,233.843,508.126,233.3,511.381,233.3
		 M511.383,236.767c-2.171,0-3.881,0.273-5.13,0.819c-1.251,0.547-2.218,1.339-2.9,2.383c-0.685,1.044-1.132,2.325-1.345,3.843
		c-0.213,1.519-0.365,3.25-0.46,5.195h19.811c-0.048-1.471-0.166-2.942-0.354-4.412c-0.188-1.471-0.626-2.787-1.309-3.951
		c-0.686-1.161-1.674-2.097-2.972-2.81C515.426,237.123,513.646,236.767,511.383,236.767"/>
	<path clip-path="url(#SVGID_2_)" fill="#004866" d="M575.48,241.791c-0.141-1.178-0.438-2.146-0.885-2.901
		c-0.448-0.754-1.072-1.296-1.873-1.627c-0.803-0.33-1.865-0.495-3.186-0.495c-0.896,0-1.898,0.165-3.007,0.495
		c-1.108,0.331-2.217,0.72-3.325,1.168c-1.108,0.449-2.182,0.932-3.219,1.449c-1.038,0.521-1.91,0.991-2.617,1.416
		c0.094,0.519,0.164,1.143,0.211,1.874c0.047,0.732,0.072,1.452,0.072,2.159v22.074c0,0.707-0.354,1.061-1.062,1.061h-2.052
		c-0.377,0-0.59-0.07-0.637-0.212c-0.047-0.142-0.071-0.425-0.071-0.849l-0.001-22.074c0-1.133-0.06-2.217-0.176-3.255
		c-0.118-1.037-0.39-1.946-0.813-2.724c-0.425-0.778-1.038-1.402-1.839-1.875c-0.803-0.471-1.888-0.708-3.255-0.708
		c-0.85,0-1.759,0.13-2.725,0.389c-0.966,0.26-1.981,0.591-3.042,0.991c-1.061,0.401-2.122,0.873-3.184,1.415
		c-1.062,0.543-2.111,1.097-3.148,1.662l0.001,26.179c0,0.707-0.33,1.06-0.991,1.06h-1.84c-0.376,0-0.624-0.07-0.742-0.212
		c-0.117-0.141-0.176-0.424-0.176-0.848l-0.002-32.334c0-0.707,0.306-1.061,0.919-1.061h1.771c0.375,0,0.646,0.071,0.813,0.212
		c0.164,0.142,0.247,0.425,0.247,0.849l0.007,2.972c0.707-0.472,1.508-0.979,2.404-1.521c0.896-0.543,1.874-1.05,2.935-1.521
		c1.061-0.471,2.181-0.873,3.36-1.204c1.179-0.328,2.381-0.494,3.607-0.494c2.545,0,4.515,0.449,5.904,1.345
		c1.393,0.897,2.371,2.217,2.938,3.962c1.893-1.416,3.951-2.654,6.173-3.716c2.225-1.06,4.543-1.591,6.955-1.591
		c2.035,0,3.678,0.272,4.933,0.813c1.254,0.543,2.237,1.334,2.947,2.371c0.709,1.038,1.193,2.299,1.454,3.784
		c0.259,1.486,0.39,3.174,0.39,5.06l0.002,22.074c0,0.707-0.361,1.061-1.081,1.061h-1.946c-0.384,0-0.636-0.07-0.756-0.212
		c-0.121-0.142-0.179-0.425-0.179-0.849l-0.001-21.296C575.693,244.409,575.622,242.971,575.48,241.791"/>
	<path clip-path="url(#SVGID_2_)" fill="#004866" d="M619.062,237.546c-0.944,0.189-1.875,0.449-2.794,0.778
		c-0.92,0.331-1.805,0.672-2.653,1.025c-0.85,0.354-1.616,0.697-2.3,1.026c-0.685,0.331-1.215,0.591-1.592,0.779l0.001,26.248
		c0,0.707-0.36,1.061-1.081,1.061h-1.945c-0.385,0-0.636-0.071-0.756-0.212c-0.121-0.142-0.181-0.424-0.181-0.849l-0.001-32.332
		c0-0.709,0.312-1.062,0.936-1.062h1.875c0.385,0,0.661,0.071,0.829,0.212s0.252,0.424,0.252,0.85v3.112
		c0.33-0.235,0.825-0.566,1.486-0.991c0.66-0.423,1.401-0.848,2.229-1.273c0.824-0.424,1.697-0.848,2.617-1.274
		c0.92-0.423,1.851-0.752,2.794-0.99c0.236-0.094,0.39-0.094,0.461,0c0.07,0.095,0.129,0.26,0.176,0.496l0.284,2.405
		C619.744,237.075,619.532,237.405,619.062,237.546"/>
	<path clip-path="url(#SVGID_2_)" fill="#004866" d="M637.668,233.302c2.972,0,5.365,0.449,7.181,1.344
		c1.816,0.897,3.243,2.064,4.281,3.502c1.038,1.439,1.733,3.09,2.087,4.953c0.354,1.863,0.531,3.762,0.531,5.695
		c0,1.086-0.201,1.934-0.603,2.548c-0.399,0.613-1.167,0.919-2.299,0.919h-21.012c0.094,2.359,0.271,4.375,0.531,6.049
		c0.258,1.675,0.73,3.031,1.415,4.069c0.683,1.037,1.65,1.793,2.9,2.263c1.248,0.472,2.911,0.707,4.988,0.707
		c0.707,0,1.556-0.035,2.547-0.105c0.99-0.071,2.004-0.165,3.042-0.284c1.037-0.116,2.039-0.223,3.007-0.318
		c0.967-0.094,1.757-0.165,2.37-0.211c0.472-0.047,0.778,0.14,0.919,0.565l0.213,1.132c0.142,0.519-0.119,0.92-0.778,1.203
		c-0.566,0.189-1.32,0.389-2.264,0.601c-0.943,0.213-1.958,0.402-3.043,0.567c-1.085,0.164-2.182,0.293-3.29,0.388
		c-1.108,0.095-2.11,0.141-3.007,0.141c-3.16,0-5.647-0.495-7.463-1.485c-1.817-0.991-3.184-2.31-4.103-3.962
		c-0.92-1.65-1.499-3.572-1.735-5.766c-0.237-2.193-0.354-4.469-0.354-6.827c0-2.028,0.117-4.091,0.354-6.191
		c0.235-2.098,0.813-3.998,1.733-5.696c0.92-1.697,2.311-3.089,4.174-4.173C631.854,233.845,634.413,233.302,637.668,233.302
		 M637.669,236.769c-2.17,0-3.88,0.273-5.129,0.819c-1.251,0.547-2.218,1.34-2.901,2.383c-0.684,1.044-1.132,2.325-1.344,3.843
		c-0.213,1.519-0.366,3.25-0.46,5.195h19.81c-0.048-1.471-0.166-2.942-0.354-4.412c-0.189-1.471-0.626-2.787-1.309-3.951
		c-0.686-1.161-1.676-2.097-2.973-2.81C641.712,237.125,639.933,236.769,637.669,236.769"/>
	<path clip-path="url(#SVGID_2_)" fill="#004866" d="M681.461,220.068c0-0.47,0.084-0.775,0.252-0.916
		c0.169-0.143,0.444-0.213,0.829-0.213l1.875,0.001c0.622,0,0.936,0.378,0.936,1.132l0.002,47.332c0,0.424-0.062,0.707-0.181,0.849
		c-0.121,0.141-0.372,0.212-0.756,0.212l-1.873-0.001c-0.386,0-0.662-0.07-0.829-0.211c-0.169-0.143-0.253-0.426-0.253-0.85v-3.255
		c-0.472,0.284-1.166,0.707-2.086,1.274c-0.921,0.566-1.971,1.109-3.147,1.627c-1.18,0.519-2.454,0.98-3.822,1.379
		c-1.368,0.401-2.713,0.602-4.033,0.602c-2.077,0-3.81-0.354-5.2-1.061c-1.392-0.707-2.5-1.78-3.325-3.219s-1.403-3.242-1.734-5.412
		c-0.33-2.17-0.495-4.693-0.495-7.571c0-3.018,0.188-5.671,0.567-7.96c0.376-2.286,1.061-4.209,2.051-5.766
		c0.991-1.555,2.334-2.734,4.032-3.536c1.698-0.802,3.867-1.204,6.509-1.204c1.415,0,2.994,0.151,4.74,0.451
		c1.744,0.3,3.678,0.914,5.803,1.839l0.142-0.071L681.461,220.068z M681.392,238.612c-2.123-0.662-4.068-1.134-5.838-1.418
		c-1.769-0.283-3.479-0.426-5.128-0.426c-1.745,0-3.185,0.261-4.316,0.78c-1.132,0.52-2.017,1.372-2.653,2.554
		s-1.086,2.741-1.345,4.681c-0.259,1.938-0.389,4.326-0.389,7.163c0,2.79,0.118,5.06,0.354,6.809
		c0.236,1.75,0.625,3.133,1.168,4.148c0.542,1.018,1.273,1.715,2.192,2.093c0.92,0.379,2.064,0.567,3.433,0.567
		c0.942,0,2.026-0.176,3.253-0.531c1.228-0.354,2.442-0.768,3.645-1.242c1.203-0.474,2.31-0.969,3.325-1.488
		c1.014-0.521,1.779-0.923,2.3-1.207L681.392,238.612z"/>
	<path clip-path="url(#SVGID_2_)" fill="#004866" d="M706.365,233.302c2.972,0,5.365,0.449,7.181,1.344
		c1.816,0.897,3.243,2.064,4.281,3.502c1.038,1.439,1.733,3.09,2.087,4.953c0.353,1.863,0.531,3.762,0.531,5.695
		c0,1.086-0.201,1.934-0.603,2.548c-0.399,0.613-1.167,0.919-2.299,0.919h-21.012c0.094,2.359,0.271,4.375,0.53,6.049
		c0.259,1.675,0.731,3.031,1.416,4.069c0.683,1.037,1.65,1.793,2.9,2.263c1.248,0.472,2.911,0.707,4.988,0.707
		c0.707,0,1.556-0.035,2.547-0.105c0.989-0.071,2.004-0.165,3.042-0.284c1.037-0.116,2.04-0.223,3.007-0.318
		c0.966-0.094,1.757-0.165,2.37-0.211c0.471-0.047,0.778,0.14,0.92,0.565l0.212,1.132c0.142,0.519-0.119,0.92-0.779,1.203
		c-0.565,0.189-1.319,0.389-2.263,0.601c-0.944,0.213-1.958,0.402-3.043,0.567c-1.085,0.164-2.182,0.293-3.29,0.388
		s-2.111,0.141-3.007,0.141c-3.16,0-5.647-0.495-7.463-1.485c-1.817-0.991-3.185-2.31-4.104-3.962
		c-0.92-1.65-1.499-3.572-1.734-5.766c-0.237-2.193-0.354-4.469-0.354-6.827c0-2.028,0.117-4.091,0.354-6.191
		c0.234-2.098,0.813-3.998,1.733-5.696c0.92-1.697,2.311-3.089,4.174-4.173C700.552,233.845,703.11,233.302,706.365,233.302
		 M706.366,236.769c-2.17,0-3.88,0.273-5.129,0.819c-1.251,0.547-2.218,1.34-2.901,2.383c-0.684,1.044-1.132,2.325-1.344,3.843
		c-0.213,1.519-0.366,3.25-0.46,5.195h19.81c-0.048-1.471-0.166-2.942-0.354-4.412c-0.189-1.471-0.626-2.787-1.31-3.951
		c-0.685-1.161-1.674-2.097-2.972-2.81C710.409,237.125,708.63,236.769,706.366,236.769"/>
	<rect x="216.182" y="295.979" clip-path="url(#SVGID_2_)" fill="#F7941E" width="58.737" height="58.737"/>
	<path clip-path="url(#SVGID_2_)" fill="#FFFFFF" d="M264.577,321.764c-0.505-2.669-1.549-5.148-3.03-7.313
		c0.961-1.426,0.815-3.379-0.443-4.638c-1.216-1.216-3.223-1.362-4.632-0.44c-2.166-1.483-4.648-2.53-7.32-3.034
		c-0.327-1.685-1.812-2.964-3.594-2.964c-1.78,0-3.267,1.279-3.593,2.964c-2.672,0.504-5.152,1.55-7.317,3.032
		c-1.41-0.92-3.419-0.771-4.633,0.443c-1.261,1.258-1.405,3.211-0.444,4.637c-1.482,2.164-2.526,4.643-3.031,7.313
		c-1.686,0.328-2.965,1.813-2.965,3.594c0,1.78,1.279,3.266,2.965,3.592c0.505,2.673,1.549,5.151,3.031,7.317
		c-0.961,1.424-0.814,3.377,0.445,4.636c0.69,0.692,1.611,1.072,2.59,1.072c0.742,0,1.448-0.22,2.049-0.626
		c2.163,1.479,4.643,2.524,7.311,3.027c0.327,1.686,1.813,2.965,3.595,2.965c1.78,0,3.266-1.279,3.592-2.965
		c2.67-0.503,5.149-1.548,7.312-3.027c0.601,0.406,1.309,0.626,2.049,0.626c0.979,0,1.899-0.379,2.592-1.072
		c1.259-1.259,1.404-3.213,0.443-4.637c1.481-2.164,2.525-4.644,3.03-7.314c1.687-0.328,2.965-1.813,2.965-3.594
		C267.542,323.576,266.264,322.092,264.577,321.764 M257.403,311.296c0.258-0.259,0.597-0.394,0.956-0.431
		c0.053-0.006,0.1-0.031,0.155-0.031c0.418,0,0.813,0.164,1.107,0.461c0.348,0.346,0.476,0.81,0.431,1.265
		c-0.034,0.347-0.163,0.688-0.431,0.956c-0.299,0.3-0.71,0.445-1.122,0.441c-0.401-0.002-0.804-0.147-1.097-0.441
		c-0.307-0.307-0.46-0.711-0.459-1.113C256.944,312,257.097,311.601,257.403,311.296 M256.78,315.645
		c0.528,0.286,1.115,0.438,1.732,0.438c0.493,0,0.972-0.075,1.413-0.26c1.23,1.842,2.118,3.957,2.566,6.207
		c-1.015,0.416-1.788,1.002-2.109,2.397h-8.639c-0.16-1.396-0.534-1.89-1.072-2.646L256.78,315.645z M248.888,308.423
		c2.251,0.45,4.375,1.337,6.22,2.571c-0.423,1.01-0.328,2.164,0.194,3.139l-6.169,6.111c-0.755-0.539-1.248-0.912-2.644-1.073v-8.64
		C247.885,310.212,248.473,309.438,248.888,308.423 M249.744,325.357c0,0.363-0.061,0.71-0.146,1.047
		c-0.1,0.379-0.25,0.735-0.445,1.065c-0.362,0.612-0.867,1.12-1.479,1.481c-0.332,0.195-0.688,0.346-1.068,0.445
		c-0.337,0.087-0.684,0.148-1.046,0.148c-0.364,0-0.711-0.063-1.048-0.148c-0.379-0.1-0.736-0.25-1.067-0.445
		c-0.612-0.36-1.119-0.867-1.479-1.48c-0.195-0.331-0.347-0.688-0.446-1.066c-0.085-0.337-0.146-0.684-0.146-1.047
		s0.062-0.71,0.146-1.046c0.1-0.381,0.251-0.737,0.446-1.069c0.36-0.611,0.867-1.117,1.481-1.479
		c0.329-0.195,0.687-0.345,1.065-0.445c0.337-0.086,0.683-0.146,1.048-0.146c0.362,0,0.709,0.061,1.046,0.146
		c0.379,0.101,0.736,0.25,1.066,0.445c0.612,0.362,1.118,0.868,1.48,1.481c0.195,0.33,0.346,0.687,0.445,1.067
		C249.684,324.647,249.744,324.994,249.744,325.357 M244.365,306.052c0.288-0.349,0.706-0.583,1.192-0.583s0.905,0.234,1.193,0.583
		c0.225,0.272,0.377,0.606,0.377,0.985c0,0.432-0.175,0.82-0.456,1.104c-0.284,0.287-0.678,0.466-1.114,0.466
		c-0.436,0-0.828-0.179-1.113-0.466c-0.281-0.284-0.456-0.673-0.456-1.104C243.988,306.658,244.141,306.324,244.365,306.052
		 M235.851,310.994c1.845-1.234,3.895-2.121,6.146-2.571c0.415,1.015,1.235,1.789,2.165,2.108v8.64
		c-0.93,0.161-1.656,0.534-2.41,1.073l-6.024-6.111C236.252,313.158,236.272,312.004,235.851,310.994 M231.494,311.293
		c0.298-0.295,0.69-0.459,1.111-0.459c0.053,0,0.1,0.025,0.152,0.029c0.358,0.036,0.697,0.172,0.957,0.43
		c0.306,0.307,0.459,0.814,0.459,1.215c0.002,0.402-0.151,0.754-0.457,1.218h-0.002c0,0-0.002-0.104-0.002-0.103
		c-0.293,0.291-0.693,0.384-1.097,0.388c-0.411,0.002-0.823-0.169-1.122-0.47c-0.265-0.266-0.396-0.623-0.43-0.973
		C231.021,312.117,231.148,311.64,231.494,311.293 M231.191,315.787c0.441,0.184,0.921,0.28,1.414,0.28
		c0.618,0,1.203-0.168,1.732-0.452l6.107,6.166c-0.539,0.756-0.913,1.25-1.073,2.646h-8.639c-0.32-1.396-1.094-1.983-2.109-2.397
		C229.072,319.779,229.96,317.629,231.191,315.787 M227.239,326.927c-0.379,0-0.715-0.152-0.986-0.377
		c-0.349-0.288-0.584-0.706-0.584-1.192s0.235-0.906,0.584-1.193c0.271-0.225,0.607-0.377,0.986-0.377
		c0.429,0,0.818,0.175,1.103,0.455c0.287,0.285,0.468,0.679,0.468,1.115c0,0.436-0.181,0.829-0.468,1.114
		C228.058,326.752,227.668,326.927,227.239,326.927 M233.715,339.451c-0.26,0.263-0.61,0.357-0.967,0.391
		c-0.454,0.039-0.921-0.087-1.252-0.419c-0.347-0.347-0.475-0.813-0.43-1.265c0.035-0.348,0.163-0.568,0.43-0.834
		c0.295-0.295,0.688-0.337,1.107-0.337h0.002c0.42,0,0.814,0.041,1.109,0.338c0.308,0.307,0.461,0.646,0.461,1.052
		C234.176,338.775,234.021,339.147,233.715,339.451 M234.325,335.196c-0.961-0.492-2.121-0.514-3.122-0.117
		c-1.238-1.848-2.129-3.903-2.579-6.161c1.016-0.416,1.788-1.235,2.108-2.166h8.64c0.161,0.931,0.534,1.658,1.073,2.414
		L234.325,335.196z M241.997,342.291c-2.252-0.448-4.257-1.337-6.099-2.569c0.42-1.012,0.441-2.167-0.083-3.141l5.935-6.11
		c0.756,0.538,1.482,0.912,2.412,1.072v8.64C243.232,340.503,242.412,341.275,241.997,342.291 M246.751,344.662
		c-0.288,0.349-0.706,0.584-1.191,0.584c-0.487,0-0.906-0.235-1.194-0.584c-0.224-0.271-0.377-0.607-0.377-0.986
		c0-0.429,0.175-0.818,0.456-1.104c0.285-0.287,0.678-0.467,1.115-0.467c0.435,0,0.828,0.18,1.112,0.467
		c0.281,0.285,0.456,0.675,0.456,1.104C247.128,344.055,246.977,344.391,246.751,344.662 M255.096,339.724
		c-1.846,1.231-3.959,2.119-6.208,2.567c-0.415-1.016-1.003-1.788-2.398-2.108v-8.64c1.396-0.161,1.889-0.534,2.646-1.072
		l6.139,6.108c-0.287,0.528-0.44,1.114-0.44,1.732C254.833,338.805,254.909,339.282,255.096,339.724 M259.622,339.421
		c-0.332,0.332-0.799,0.458-1.252,0.418c-0.357-0.031-0.583-0.156-0.845-0.418c-0.296-0.295-0.336-0.688-0.336-1.106v-0.003
		c0-0.419,0.04-0.688,0.336-0.986c0.297-0.297,0.566-0.338,0.986-0.338h0.003c0.418,0,0.812,0.041,1.107,0.338
		c0.268,0.267,0.395,0.548,0.431,0.895C260.097,338.672,259.969,339.076,259.622,339.421 M259.913,334.947
		c-1.002-0.396-2.161-0.331-3.121,0.162l-6.12-5.945c0.538-0.756,0.911-1.481,1.072-2.412h8.641c0.319,0.931,1.093,1.75,2.107,2.166
		C262.042,331.176,261.151,333.1,259.913,334.947 M264.863,326.55c-0.271,0.225-0.607,0.378-0.986,0.378
		c-0.429,0-0.817-0.176-1.103-0.456c-0.287-0.285-0.467-0.679-0.467-1.114c0-0.437,0.18-0.828,0.467-1.115
		c0.285-0.28,0.674-0.455,1.103-0.455c0.379,0,0.715,0.152,0.986,0.377c0.35,0.287,0.584,0.707,0.584,1.193
		C265.447,325.843,265.213,326.262,264.863,326.55"/>
	<rect x="333.657" y="295.979" clip-path="url(#SVGID_2_)" fill="#9ACA3C" width="58.737" height="58.737"/>
	<path clip-path="url(#SVGID_2_)" fill="#FFFFFF" d="M361.197,328.176c-1.01,1.01-1.01,2.646,0,3.656s2.646,1.01,3.656,0
		s1.01-2.646,0-3.656S362.207,327.166,361.197,328.176 M358.02,324.998c-0.457,0.458-0.457,1.197,0,1.652
		c0.457,0.459,1.196,0.459,1.652,0c1.85-1.848,4.856-1.848,6.706,0c0.228,0.229,0.527,0.345,0.826,0.345s0.598-0.115,0.827-0.345
		c0.456-0.455,0.456-1.194,0-1.652C365.27,322.239,360.78,322.239,358.02,324.998 M355.906,324.055c0.299,0,0.597-0.115,0.827-0.344
		c3.47-3.471,9.115-3.468,12.585,0c0.456,0.457,1.195,0.457,1.652,0c0.456-0.456,0.456-1.195,0-1.652
		c-4.379-4.379-11.508-4.381-15.891,0c-0.457,0.457-0.457,1.196-0.001,1.652C355.307,323.939,355.605,324.055,355.906,324.055
		 M383.909,312.973h-41.769c-0.806,0-1.46,0.654-1.46,1.461v21.827c0,0.808,0.654,1.461,1.46,1.461h41.769
		c0.807,0,1.461-0.653,1.461-1.461v-21.827C385.37,313.627,384.716,312.973,383.909,312.973 M382.448,334.801h-38.847v-18.906
		h38.847V334.801z"/>
	<rect x="392.395" y="295.979" clip-path="url(#SVGID_2_)" fill="#00A4E3" width="58.736" height="58.737"/>
	<path clip-path="url(#SVGID_2_)" fill="#FFFFFF" d="M432.147,326.557v11.146l-24.636,0.001l-0.001-24.634h24.603l2.656-2.656
		c-0.289-0.279-0.675-0.438-1.076-0.438h-27.729c-0.854,0-1.547,0.692-1.547,1.547l0.001,27.727c0,0.41,0.163,0.803,0.452,1.094
		c0.291,0.29,0.686,0.452,1.095,0.452h27.728c0.854,0,1.547-0.691,1.547-1.547v-15.784L432.147,326.557z M442.639,309.305
		c-0.66-0.658-1.727-0.658-2.387,0l-19.596,19.597l-7.98-7.979c-0.658-0.658-1.727-0.658-2.385,0c-0.66,0.658-0.66,1.728,0,2.387
		l9.171,9.172c0.331,0.33,0.763,0.494,1.194,0.494s0.864-0.164,1.193-0.494l20.788-20.788
		C443.298,311.032,443.298,309.965,442.639,309.305"/>
	<rect x="274.919" y="295.979" clip-path="url(#SVGID_2_)" fill="#00A99D" width="58.737" height="58.737"/>
	<path clip-path="url(#SVGID_2_)" fill="#FFFFFF" d="M303.076,334.541c-0.416,0-0.807,0.162-1.099,0.455l-4.002,4.005
		c-0.978,0.976-2.279,1.513-3.663,1.513c-1.388,0-2.688-0.537-3.667-1.516c-2.021-2.02-2.021-5.309,0-7.331l8.024-8.024
		c0.332-0.332,0.653-0.569,0.98-0.727c0.802-0.381,1.631-0.575,2.468-0.575c1.335,0,2.594,0.502,3.562,1.417l2.194-2.195
		c-1.553-1.5-3.591-2.324-5.756-2.324c-1.156,0-2.313,0.232-3.438,0.691c-0.767,0.313-1.51,0.824-2.205,1.521l-8.022,8.022
		c-3.231,3.231-3.233,8.489,0,11.721c1.562,1.562,3.642,2.423,5.86,2.423c2.216,0,4.296-0.861,5.856-2.422l4.003-4.003
		c0.605-0.605,0.605-1.59,0-2.195C303.88,334.703,303.49,334.541,303.076,334.541 M320.141,309.502
		c-1.563-1.563-3.645-2.424-5.861-2.424c-2.215,0-4.296,0.861-5.858,2.423l-4.001,4.003c-0.604,0.605-0.604,1.59,0,2.195
		c0.292,0.293,0.683,0.453,1.097,0.453c0.415,0,0.805-0.16,1.097-0.453l4.002-4.006c0.979-0.976,2.28-1.514,3.665-1.514
		c1.386,0,2.688,0.539,3.667,1.518c2.019,2.02,2.019,5.31,0,7.33l-8.025,8.025c-0.334,0.332-0.653,0.569-0.982,0.725
		c-0.799,0.382-1.63,0.576-2.467,0.576c-1.334,0-2.594-0.502-3.561-1.416l-2.194,2.195c1.552,1.5,3.59,2.324,5.755,2.324
		c1.156,0,2.313-0.233,3.438-0.691c0.767-0.313,1.51-0.824,2.206-1.521l8.023-8.021
		C323.371,317.991,323.371,312.732,320.141,309.502"/>
	<rect x="451.131" y="295.979" clip-path="url(#SVGID_2_)" fill="#007DC3" width="58.737" height="58.737"/>
	<path clip-path="url(#SVGID_2_)" fill="#FFFFFF" d="M484.599,336.348c1.002-1.05,1.57-2.456,1.57-3.906
		c0-3.125-2.543-5.668-5.669-5.668c-3.125,0-5.668,2.543-5.668,5.668c0,1.471,0.557,2.846,1.571,3.907
		c-1.624,1.407-3.679,3.382-3.679,7.724v0.787c0,0.162,0.131,0.293,0.292,0.293h14.966c0.162,0,0.294-0.131,0.294-0.293v-0.787
		C488.276,339.729,486.222,337.755,484.599,336.348 M480.5,328.933c1.936,0,3.51,1.574,3.51,3.509c0,1.936-1.574,3.511-3.51,3.511
		c-1.934,0-3.508-1.575-3.508-3.511C476.992,330.507,478.566,328.933,480.5,328.933 M474.942,342.994
		c0.297-2.783,1.725-4.023,3.119-5.225c0.771,0.307,1.612,0.471,2.446,0.476c0.821-0.005,1.659-0.169,2.433-0.475
		c1.389,1.196,2.822,2.437,3.12,5.224H474.942z M477.215,312.234h6.569c0.566,0,1.024-0.457,1.024-1.023
		c0-0.565-0.458-1.024-1.024-1.024h-6.569c-0.565,0-1.023,0.459-1.023,1.024C476.191,311.777,476.649,312.234,477.215,312.234
		 M492.982,326.178c-0.49-0.282-1.117-0.114-1.399,0.376l-3.982,6.896c-0.282,0.49-0.114,1.115,0.376,1.399
		c0.161,0.093,0.338,0.137,0.511,0.137c0.354,0,0.699-0.183,0.888-0.513l3.982-6.895
		C493.64,327.088,493.473,326.462,492.982,326.178 M497.127,315.117c1.003-1.053,1.57-2.459,1.57-3.907
		c0-3.126-2.542-5.668-5.668-5.668c-3.125,0-5.667,2.542-5.667,5.668c0,1.471,0.554,2.847,1.57,3.907
		c-1.552,1.344-3.679,3.391-3.68,7.725v0.787c0,0.162,0.132,0.294,0.292,0.294h14.967c0.16,0,0.292-0.132,0.292-0.294v-0.787
		C500.804,318.496,498.75,316.523,497.127,315.117 M493.029,307.701c1.935,0,3.51,1.574,3.51,3.509c0,1.936-1.575,3.51-3.51,3.51
		c-1.934,0-3.509-1.574-3.509-3.51C489.521,309.275,491.096,307.701,493.029,307.701 M487.469,321.762
		c0.298-2.757,1.703-4.001,3.123-5.223c0.771,0.306,1.611,0.469,2.445,0.475c0.823-0.006,1.659-0.17,2.432-0.475
		c1.391,1.195,2.822,2.435,3.12,5.223H487.469z M472.909,333.449l-3.98-6.896c-0.283-0.49-0.908-0.657-1.4-0.376
		c-0.49,0.284-0.658,0.91-0.375,1.4l3.981,6.895c0.19,0.33,0.534,0.513,0.889,0.513c0.174,0,0.349-0.044,0.511-0.137
		C473.024,334.564,473.191,333.939,472.909,333.449 M475.746,323.629v-0.786c0-4.336-2.128-6.382-3.678-7.726
		c1.003-1.051,1.572-2.457,1.572-3.907c0-3.126-2.542-5.668-5.668-5.668c-3.127,0-5.668,2.543-5.668,5.669
		c0,1.47,0.555,2.845,1.569,3.906c-1.624,1.406-3.678,3.381-3.678,7.726v0.786c0,0.162,0.13,0.294,0.292,0.294h14.966
		C475.615,323.923,475.746,323.791,475.746,323.629 M467.973,307.701c1.934,0,3.508,1.574,3.508,3.509
		c0,1.936-1.574,3.51-3.508,3.51c-1.936,0-3.511-1.574-3.511-3.509C464.462,309.275,466.037,307.701,467.973,307.701
		 M462.412,321.762c0.295-2.764,1.707-4.007,3.121-5.223c0.773,0.306,1.614,0.47,2.447,0.475c0.818-0.005,1.656-0.169,2.431-0.475
		c1.39,1.195,2.821,2.436,3.12,5.223H462.412z"/>
	<rect x="509.869" y="295.979" clip-path="url(#SVGID_2_)" fill="#ADB8BF" width="58.736" height="58.737"/>
	<path clip-path="url(#SVGID_2_)" fill="#FFFFFF" d="M559.807,322.791v-7.732c0-4.229-3.141-7.668-7-7.668h-15.034
		c-3.86,0-7,3.439-7,7.668v0.949h-5.103c-3.859,0-7,3.438-7,7.666v7.732c0,3.299,1.913,6.119,4.586,7.198v2.055
		c0,0.984,0.5,1.888,1.298,2.344c0.352,0.201,0.734,0.301,1.118,0.301c0.483,0,0.967-0.16,1.379-0.476l4.923-3.754h8.73
		c3.859,0,7-3.439,7-7.667v-0.034l3.724,2.84c0.412,0.315,0.895,0.475,1.379,0.475c0.383,0,0.766-0.1,1.117-0.301
		c0.798-0.455,1.298-1.358,1.298-2.344v-2.055C557.895,328.909,559.807,326.09,559.807,322.791 M540.704,336.431h-9.489
		l-5.543,4.229v-4.229c-2.533,0-4.588-2.248-4.588-5.023v-7.732c0-2.773,2.055-5.022,4.586-5.022h5.103v4.14
		c0,2.049,0.729,3.973,2.051,5.422c1.322,1.448,3.08,2.246,4.95,2.246h7.516v0.948C545.29,334.182,543.237,336.431,540.704,336.431
		 M533.188,318.651h7.517c2.532,0,4.585,2.249,4.585,5.024v4.139h-7.516c-2.533,0-4.586-2.249-4.586-5.023V318.651z
		 M552.807,327.814v4.229l-5.103-3.891v-4.477c0-4.229-3.141-7.668-7-7.668h-7.517v-0.949c0-2.774,2.053-5.023,4.585-5.023h15.034
		c2.531,0,4.585,2.249,4.585,5.023v7.732C557.393,325.565,555.34,327.814,552.807,327.814"/>
	<rect x="568.605" y="295.979" clip-path="url(#SVGID_2_)" fill="#FDBB30" width="58.737" height="58.737"/>
	<path clip-path="url(#SVGID_2_)" fill="#FFFFFF" d="M606.891,315.45h-1.173c-1.204,0-1.773,0.513-2.402,1.459l-0.193,0.289
		l-0.253-0.239c-0.883-0.842-2.115-1.701-4.563-1.701c-6.272,0-10.486,6.269-10.486,12.123c0,3.914,2.033,6.253,5.435,6.253
		c2.419,0,4.593-1.163,6.462-3.454l0.407-0.499l0.108,0.635c0.371,2.171,2.168,3.318,5.196,3.318c2.816,0,5.396-1.061,7.269-2.986
		c2.169-2.231,3.314-5.558,3.314-9.617c0-7.687-5.444-15.444-17.609-15.444c-4.866,0-9.756,1.869-13.417,5.129
		c-2.922,2.603-6.404,7.287-6.404,14.838c0,12.925,10.109,17.512,18.764,17.512h0.003c5.012,0,9.922-1.29,12.843-3.37v-2.6
		l-0.833-0.045c-2.971,2.177-7.236,3.376-12.013,3.376c-9.818,0-15.449-5.422-15.45-14.873c0-5.356,1.794-9.855,5.188-13.01
		c2.998-2.785,7.02-4.316,11.321-4.316c8.937,0,14.487,4.906,14.487,12.804c0,6.269-2.43,10.012-6.498,10.012
		c-0.862,0-1.498-0.241-1.892-0.72c-0.505-0.613-0.606-1.582-0.319-3.054L606.891,315.45z M600.159,327.724
		c-1.372,1.5-3.249,3.222-5.605,3.222c-1.841,0-2.938-1.332-2.938-3.564c0-2.323,0.743-4.676,2.041-6.451
		c1.382-1.895,3.221-2.936,5.18-2.936h0.001c1.566,0,2.341,0.389,3.161,0.801l0.206,0.104L600.159,327.724z"/>
	<rect x="627.344" y="295.979" clip-path="url(#SVGID_2_)" fill="#00694A" width="58.737" height="58.737"/>
	<path clip-path="url(#SVGID_2_)" fill="#FFFFFF" d="M654.397,307.922c-0.571,0-1.034,0.5-1.034,1.121l-0.001,32.611
		c0,0.617,0.464,1.119,1.035,1.119c0.57,0,1.033-0.502,1.033-1.119v-32.611C655.431,308.422,654.969,307.922,654.397,307.922
		 M649.973,315.683c-0.57,0-1.034,0.502-1.034,1.12v17.089c0,0.619,0.464,1.12,1.034,1.12s1.033-0.501,1.033-1.12l0.001-17.089
		C651.007,316.185,650.543,315.683,649.973,315.683 M645.888,318.959c-0.57,0-1.034,0.5-1.034,1.119v10.538
		c0,0.619,0.463,1.12,1.034,1.12s1.034-0.501,1.034-1.12v-10.538C646.922,319.459,646.459,318.959,645.888,318.959 M641.86,320.811
		c-0.571,0-1.034,0.501-1.034,1.119v6.836c0,0.617,0.463,1.119,1.034,1.119c0.57,0,1.032-0.502,1.032-1.119v-6.836
		C642.893,321.312,642.431,320.811,641.86,320.811 M637.98,322.377c-0.572,0-1.035,0.5-1.035,1.119v3.703
		c0,0.618,0.463,1.119,1.034,1.119c0.57,0,1.033-0.501,1.033-1.119v-3.703C639.013,322.877,638.55,322.377,637.98,322.377
		 M671.415,321.023c-0.571,0-1.035,0.502-1.035,1.12v6.407c0,0.621,0.464,1.121,1.035,1.121c0.572,0,1.034-0.5,1.034-1.121v-6.407
		C672.449,321.525,671.987,321.023,671.415,321.023 M667.387,319.601c-0.57,0-1.032,0.5-1.032,1.118l-0.001,9.258
		c0,0.617,0.463,1.119,1.033,1.119c0.571,0,1.033-0.502,1.033-1.119l0.001-9.258C668.421,320.101,667.958,319.601,667.387,319.601
		 M658.756,310.698c-0.57,0-1.033,0.502-1.033,1.12l-0.001,27.058c0,0.619,0.464,1.12,1.034,1.12c0.571,0,1.033-0.501,1.033-1.12
		l0.001-27.058C659.79,311.2,659.328,310.698,658.756,310.698 M675.443,322.377c-0.571,0-1.034,0.5-1.034,1.119v3.703
		c0,0.618,0.463,1.119,1.034,1.119c0.57,0,1.033-0.501,1.033-1.119v-3.703C676.477,322.877,676.014,322.377,675.443,322.377
		 M663.359,316.252c-0.571,0-1.034,0.502-1.034,1.121v15.95c0,0.618,0.462,1.12,1.034,1.12c0.57,0,1.033-0.502,1.033-1.12v-15.95
		C664.393,316.754,663.93,316.252,663.359,316.252"/>
	<rect x="686.081" y="295.979" clip-path="url(#SVGID_2_)" fill="#C6B256" width="58.737" height="58.737"/>
	<path clip-path="url(#SVGID_2_)" fill="#FFFFFF" d="M715.449,305.67c-10.592,0-19.21,8.828-19.21,19.678
		c0,10.852,8.618,19.679,19.21,19.679s19.209-8.827,19.209-19.679C734.658,314.498,726.041,305.67,715.449,305.67 M715.449,342.178
		c-9.021,0-16.36-7.551-16.36-16.83s7.339-16.828,16.36-16.828s16.36,7.549,16.36,16.828
		C731.81,334.628,724.471,342.178,715.449,342.178 M721.5,314.653l-7.599,5.104c-1.707,1.145-3.56,3.731-4.118,5.744l-2.478,8.963
		c-0.556,2.015,0.385,2.725,2.092,1.579l7.599-5.104c1.706-1.146,3.561-3.733,4.115-5.746l2.483-8.962
		C724.147,314.217,723.205,313.508,721.5,314.653 M718.104,327.354c-1.081,1.506-3.143,1.826-4.611,0.722
		c-1.467-1.106-1.782-3.226-0.704-4.731c1.08-1.508,3.143-1.83,4.61-0.724C718.869,323.729,719.186,325.848,718.104,327.354"/>
</g>
<g>
</g>
<g>
</g>
<g>
</g>
<g>
</g>
<g>
</g>
<g>
</g>
<g>
</g>
<g>
</g>
<g>
</g>
<g>
</g>
<g>
</g>
<g>
</g>
<g>
</g>
<g>
</g>
<g>
</g>
</svg>
