<?xml version="1.0" encoding="utf-8"?>
<!-- Generator: Adobe Illustrator 16.0.0, SVG Export Plug-In . SVG Version: 6.00 Build 0)  -->
<!DOCTYPE svg PUBLIC "-//W3C//DTD SVG 1.1//EN" "http://www.w3.org/Graphics/SVG/1.1/DTD/svg11.dtd">
<svg version="1.1" id="Layer_1" xmlns="http://www.w3.org/2000/svg" xmlns:xlink="http://www.w3.org/1999/xlink" x="0px" y="0px"
	 width="960px" height="560px" viewBox="0 0 960 560" enable-background="new 0 0 960 560" xml:space="preserve">
<path fill="#626466" d="M449.73,336.105c-6.271,0-7.841-2.675-7.841-7.379v-11.335c0-0.285,0.178-0.392,0.462-0.463l1.928-0.464
	h0.104c0.25,0,0.321,0.252,0.321,0.464v12.084c0,3.35,1.177,4.848,5.026,4.848c4.635,0,4.992-2.28,4.992-4.956v-11.513
	c0-0.285,0.214-0.392,0.463-0.463l1.925-0.464h0.108c0.247,0,0.353,0.252,0.353,0.464v11.729
	C457.571,332.186,457.073,336.105,449.73,336.105"/>
<path fill="#626466" d="M504.156,335.074c0,0.141-0.143,0.318-0.283,0.354c-0.787,0.248-2.318,0.677-4.352,0.677
	c-3.529,0-5.204-1.531-5.204-4.957v-19.602c0-0.286,0.179-0.393,0.429-0.426l1.924-0.502h0.106c0.25,0,0.356,0.25,0.356,0.463v5.846
	h5.99c0.319,0,0.534,0.213,0.534,0.535v1.213c0,0.321-0.215,0.534-0.534,0.534h-5.99v12.228c0,1.961,1.07,2.387,2.922,2.387
	c1.107,0,2.533-0.283,3.281-0.465h0.106c0.181,0,0.322,0.109,0.392,0.322l0.322,1.319V335.074z"/>
<path fill="#626466" d="M529.064,317.393c-0.145-0.213-0.324-0.465-0.644-0.465h-2.267c-0.181,0-0.323,0.213-0.323,0.43
	c0,0.072,0.038,0.178,0.108,0.25l6.295,8.673l-6.295,8.647c-0.07,0.073-0.108,0.18-0.108,0.287c0,0.247,0.143,0.426,0.393,0.426
	h2.22c0.181,0,0.394-0.14,0.5-0.283l4.938-6.805l4.938,6.805c0.105,0.144,0.32,0.283,0.5,0.283h2.221
	c0.249,0,0.391-0.179,0.391-0.426c0-0.107-0.033-0.214-0.105-0.287L529.064,317.393z"/>
<path fill="#626466" d="M536.383,324.57c0.231,0.229,0.444-0.086,0.444-0.086l4.997-6.877c0.07-0.072,0.105-0.18,0.105-0.25
	c0-0.217-0.142-0.43-0.32-0.43h-2.268c-0.322,0-0.498,0.252-0.641,0.465l-3.525,4.832c0,0-0.289,0.311-0.056,0.617
	C535.192,322.928,536.014,324.064,536.383,324.57"/>
<path fill="#626466" d="M472.721,317.627c-0.017-0.285-0.271-0.377-0.379-0.408c-1.163-0.361-5.129-0.992-7.903-0.584
	c-0.003,0-0.004,0.002-0.007,0.003c-0.061,0.008-0.135,0.014-0.192,0.022c-0.742,0.129-1.309,0.437-1.547,0.672
	c-0.396,0.394-0.509,0.973-0.509,1.95v15.826c0,0.321,0.177,0.533,0.497,0.533h0.037h1.46h0.325c0.319,0,0.495-0.212,0.495-0.533
	V319.06c0.122-0.007,0.225-0.011,0.355-0.021c2.742-0.156,5.113,0.242,6.591,0.514c0.069-0.006,0.148,0.027,0.216,0.022
	c0.141-0.008,0.278-0.088,0.338-0.307l0.226-1.57L472.721,317.627z"/>
<path fill="#626466" d="M487.764,317.393c-1.031-0.571-2.812-0.891-5.203-0.928c-1.772-0.037-5.063,0.289-6.204,0.717
	c-0.106,0.037-0.355,0.144-0.355,0.428v0.07l0.321,1.605c0.072,0.215,0.212,0.284,0.355,0.284c0.072,0,0.145-0.034,0.213-0.034
	c1.464-0.357,3.159-0.688,5.351-0.646c1.566,0,2.563,0.144,3.24,0.431c1.25,0.462,1.283,1.39,1.283,2.528v11.334
	c-1.496,0.498-3.107,0.688-4.679,0.688c-2.352,0-5.42-0.223-5.42-3.787c0-2.816,2.061-3.328,3.578-3.328h2.313h2.123
	c0.219,0,0.365-0.143,0.365-0.361v-1.563c0-0.219-0.146-0.365-0.365-0.365h-4.652c-2.779,0-6.098,1.067-6.098,5.693
	c0,5.771,5.031,5.948,8.094,5.948c1.89,0,3.602-0.286,4.635-0.501c2.459-0.605,2.958-1.178,2.958-3.67v-10.231
	C489.618,320.028,489.582,318.355,487.764,317.393"/>
<path fill="#626466" d="M521.895,319.638c-1.178-2.032-3.285-3.172-7.026-3.172c-7.058,0-8.269,3.815-8.269,9.837
	c0,6.559,2.066,9.802,9.055,9.802c2.352,0,4.707-0.463,6.13-1.03c0.213-0.108,0.429-0.272,0.354-0.539
	c-0.072-0.265-0.39-1.353-0.39-1.353c-0.112-0.364-0.412-0.303-0.476-0.282c-0.035,0.01-0.228,0.07-0.291,0.086
	c-1.008,0.284-1.821,0.521-2.912,0.672c-0.603,0.086-1.377,0.168-2.131,0.168c-2.494,0-4.244-0.396-5.273-1.711
	c-0.51-0.629-0.837-1.34-0.994-2.338c-0.031-0.203-0.113-1.371-0.124-1.699c-0.063-1.67-0.015-2.692-0.01-2.84
	c0.036-1.156,0.103-2.354,0.413-3.496c0.604-2.281,1.994-3.032,4.848-3.032c2.887,0,4.273,0.751,4.918,3.032
	c0.32,1.319,0.391,2.34,0.43,3.695h-8.504c-0.219,0-0.363,0.147-0.363,0.364v1.608c0,0.22,0.145,0.362,0.363,0.362h10.854
	c0.251,0,0.538-0.272,0.538-0.592v-1.563C523.034,323.158,522.822,321.242,521.895,319.638"/>
<path fill="#626466" d="M427.191,333.348c-0.353,0.02-1.131,0.047-1.97,0.063c-0.671,0.01-1.273,0.008-1.704,0.008
	c-0.563-0.002-1.178-0.014-1.72-0.041V323.23v-10.146c0.542-0.03,1.157-0.039,1.72-0.041c0.431,0,1.033-0.004,1.704,0.007
	c0.839,0.014,1.617,0.043,1.97,0.061c5.025,0.259,7.596,1.749,7.616,10.12C434.787,331.599,432.216,333.092,427.191,333.348
	 M429.011,310.572c-0.646-0.1-3.222-0.219-5.655-0.219c-1.494,0-4.017,0.092-4.017,0.092c-0.321,0-0.571,0.25-0.571,0.571v12.214
	v12.213c0,0.319,0.25,0.569,0.571,0.569c0,0,2.523,0.093,4.017,0.093c2.433,0,5.009-0.117,5.655-0.22
	c5.683-0.529,8.896-2.894,8.9-12.655C437.907,313.468,434.694,311.101,429.011,310.572"/>
<g>
	<defs>
		<path id="SVGID_1_" d="M477.949,222.865c-0.011,0.01-0.032,0.046,0.007,0.109c24.218,36.706,2.85,70.378-14.537,62.371
			c5.63,10.898,15.49,13.953,23.621,11.647c19.375-5.496,33.164-41.367-8.99-74.112c-0.004-0.003-0.022-0.015-0.03-0.02
			c-0.009-0.002-0.019-0.005-0.03-0.005C477.976,222.855,477.961,222.858,477.949,222.865"/>
	</defs>
	<clipPath id="SVGID_2_">
		<use xlink:href="#SVGID_1_"  overflow="visible"/>
	</clipPath>
	
		<linearGradient id="SVGID_3_" gradientUnits="userSpaceOnUse" x1="-477.9204" y1="837.5859" x2="-476.9208" y2="837.5859" gradientTransform="matrix(0.0989 56.6397 56.6397 -0.0989 -46901.625 27393.375)">
		<stop  offset="0" style="stop-color:#00ABBD"/>
		<stop  offset="0.1365" style="stop-color:#009CB0"/>
		<stop  offset="0.7212" style="stop-color:#00607B"/>
		<stop  offset="1" style="stop-color:#004866"/>
	</linearGradient>
	<polygon clip-path="url(#SVGID_2_)" fill="url(#SVGID_3_)" points="520.203,222.756 520.337,299.298 463.419,299.396 
		463.285,222.855 	"/>
</g>
<g>
	<defs>
		<path id="SVGID_4_" d="M481.457,248.261c-1.834,6.387-19.711,10.511-24.708,18.251c-5.152,7.986,0.851,15.363,6.669,18.833
			c-5.597-14.871,23.863-20.014,18.148-37.068c-0.012-0.037-0.037-0.054-0.063-0.054
			C481.484,248.223,481.465,248.236,481.457,248.261"/>
	</defs>
	<clipPath id="SVGID_5_">
		<use xlink:href="#SVGID_4_"  overflow="visible"/>
	</clipPath>
	
		<linearGradient id="SVGID_6_" gradientUnits="userSpaceOnUse" x1="-475.312" y1="847.1719" x2="-474.3116" y2="847.1719" gradientTransform="matrix(2.6864 33.3892 33.3892 -2.6864 -26541.3125 18397.9531)">
		<stop  offset="0" style="stop-color:#00ABBD"/>
		<stop  offset="0.1365" style="stop-color:#009CB0"/>
		<stop  offset="0.7212" style="stop-color:#00607B"/>
		<stop  offset="1" style="stop-color:#004866"/>
	</linearGradient>
	<polygon clip-path="url(#SVGID_5_)" fill="url(#SVGID_6_)" points="487.051,245.371 490.248,285.106 451.827,288.197 
		448.63,248.462 	"/>
</g>
<g>
</g>
<g>
</g>
<g>
</g>
<g>
</g>
<g>
</g>
<g>
</g>
<g>
</g>
<g>
</g>
<g>
</g>
<g>
</g>
<g>
</g>
<g>
</g>
<g>
</g>
<g>
</g>
<g>
</g>
</svg>
